<?xml version="1.0" encoding="UTF-8"?><svg id="uuid-681fb150-2114-4f69-bc99-dcbabdae2b05" xmlns="http://www.w3.org/2000/svg" viewBox="0 0 400 77.09"><defs><style>.uuid-bce9f288-9df9-488e-ad0d-4962c438832d{fill:#fff;}</style></defs><path class="uuid-bce9f288-9df9-488e-ad0d-4962c438832d" d="M12.91,75.17v.26H0v-.26c1.32-.99,2.12-2.45,2.12-4.17v-37.46c0-1.72-.79-3.18-2.12-4.17v-.26h24.42c10.59,0,17.67,6.09,17.67,14.63,0,7.41-4.9,11.98-11.85,13.57,7.61,4.5,10.26,15.75,16.15,15.75.6,0,.86.2.86.46,0,.99-1.72,2.71-5.36,2.71-11.85,0-12.51-16.61-24.36-16.61h-6.75v11.38c0,1.72.79,3.18,2.12,4.17ZM24.42,51.81c5.36,0,8.93-2.98,8.93-7.48s-3.51-7.41-8.93-7.41h-13.63v14.89h13.63Z"/><path class="uuid-bce9f288-9df9-488e-ad0d-4962c438832d" d="M84.65,56.84c-.93-1.19-2.45-1.92-4.1-1.92h-21.31v12.71h27.27c1.72,0,3.31-.79,3.84-1.92h.4l-1.52,9.73h-40.77v-.26c1.32-.99,2.12-2.45,2.12-4.17v-37.46c0-1.72-.79-3.18-2.12-4.17v-.26h38.92l1.52,9.73h-.4c-.6-1.19-2.12-1.92-3.97-1.92h-25.28v10.19h21.31c1.65,0,3.18-.66,4.1-1.85h.26v11.58h-.26Z"/><path class="uuid-bce9f288-9df9-488e-ad0d-4962c438832d" d="M106.62,75.17v.26h-12.91v-.26c1.32-.99,2.12-2.45,2.12-4.17v-37.46c0-1.72-.79-3.18-2.12-4.17v-.26h12.91v.26c-1.32.99-2.12,2.45-2.12,4.17v15.82l18.2-15.82c1.92-1.65,2.45-3.11,1.26-4.17v-.26h16.74v.26c-.99.33-3.84,2.45-5.82,4.17l-14.16,12.31c10.46,4.83,10.32,23.89,22.24,23.89,4.24,0,7.55-2.58,8.27-2.58.33,0,.93.46.93,1.85,0,3.51-4.04,8.07-10.99,8.07-16.81,0-16.88-23.23-27.14-25.41l-9.53,8.27v11.05c0,1.72.79,3.18,2.12,4.17Z"/><path class="uuid-bce9f288-9df9-488e-ad0d-4962c438832d" d="M143.41,60.81c1.32-.99,2.12-2.45,2.12-4.17v-23.1c0-1.72-.79-3.24-2.12-4.17v-.26h12.91v.26c-1.32.93-2.12,2.45-2.12,4.17v23.1c0,1.72.79,3.18,2.12,4.17v.26h-12.91v-.26Z"/><path class="uuid-bce9f288-9df9-488e-ad0d-4962c438832d" d="M161.48,75.17c1.32-.99,2.12-2.45,2.12-4.17v-37.46c0-1.72-.79-3.18-2.12-4.17v-.26h12.91v.26c-1.32.99-2.12,2.45-2.12,4.17,0,8.74,22.5,16.81,26.41,23.69v-23.69c0-1.72-.79-3.18-2.12-4.17v-.26h12.91v.26c-1.32.99-2.05,2.45-2.05,4.17v37.46c0,1.72.73,3.18,2.05,4.17v.26h-12.91v-.26c1.32-.99,2.12-2.45,2.12-4.17,0-9.33-22.77-17.41-26.41-24.09v24.09c0,1.72.79,3.18,2.12,4.17v.26h-12.91v-.26Z"/><path class="uuid-bce9f288-9df9-488e-ad0d-4962c438832d" d="M214.63,75.17c1.32-.99,2.12-2.45,2.12-4.17v-37.46c0-1.72-.79-3.18-2.12-4.17v-.26h20.98c18.27,0,26.21,10.92,26.21,23.36,0,13.77-9.73,22.97-27.2,22.97h-19.99v-.26ZM234.61,67.62c11.91,0,18.47-5.29,18.47-15.35s-6.16-15.35-18-15.35h-9.66v30.71h9.2Z"/><path class="uuid-bce9f288-9df9-488e-ad0d-4962c438832d" d="M265.12,75.17c1.32-.99,2.12-2.45,2.12-4.17v-37.46c0-1.72-.79-3.18-2.12-4.17v-.26h12.91v.26c-1.32.99-2.12,2.45-2.12,4.17v34.08h25.15c1.72,0,3.31-.79,3.84-1.92h.4l-1.52,9.73h-38.65v-.26Z"/><path class="uuid-bce9f288-9df9-488e-ad0d-4962c438832d" d="M343.75,56.84c-.93-1.19-2.45-1.92-4.1-1.92h-21.31v12.71h27.27c1.72,0,3.31-.79,3.84-1.92h.4l-1.52,9.73h-40.77v-.26c1.32-.99,2.12-2.45,2.12-4.17v-37.46c0-1.72-.79-3.18-2.12-4.17v-.26h38.92l1.52,9.73h-.4c-.6-1.19-2.12-1.92-3.97-1.92h-25.28v10.19h21.31c1.65,0,3.18-.66,4.1-1.85h.26v11.58h-.26Z"/><path class="uuid-bce9f288-9df9-488e-ad0d-4962c438832d" d="M352.81,75.17c1.32-.99,2.12-2.45,2.12-4.17v-37.46c0-1.72-.79-3.18-2.12-4.17v-.26h20.98c18.27,0,26.21,10.92,26.21,23.36,0,13.77-9.73,22.97-27.2,22.97h-19.99v-.26ZM372.8,67.62c11.91,0,18.47-5.29,18.47-15.35s-6.16-15.35-18-15.35h-9.66v30.71h9.2Z"/><path class="uuid-bce9f288-9df9-488e-ad0d-4962c438832d" d="M.19,12.52C.19,5.58,5.4,0,12.54,0c3.68,0,5.65,1.57,6.81,1.57.37,0,.61-.17.82-.41h.17v5.07h-.14c-1.67-1.91-4.9-3.03-7.56-3.03C7.51,3.2,3.83,7.25,3.83,12.52s3.88,9.39,9.12,9.39c1.74,0,3.03-.41,4.12-.99v-5.99c0-.78-.37-1.46-.99-1.91v-.14h5.62v.14c-.61.44-.99,1.12-.99,1.91v5.14c0,.92.37,1.46.88,1.67v.14c-2.01,1.63-4.8,3.3-8.68,3.3C5.64,25.18.19,19.6.19,12.52Z"/><path class="uuid-bce9f288-9df9-488e-ad0d-4962c438832d" d="M23.2,10.18c0-4.63,3.61-8.34,8.17-8.34s8.13,3.71,8.13,8.34-3.57,8.37-8.13,8.37-8.17-3.71-8.17-8.37ZM31.36,15.18c2.72,0,4.73-2.11,4.73-5s-2.01-4.97-4.73-4.97-4.73,2.11-4.73,4.97,1.97,5,4.73,5Z"/><path class="uuid-bce9f288-9df9-488e-ad0d-4962c438832d" d="M41.57,24.37c.58-.44.95-1.12.95-1.87V2.69c0-.78-.37-1.43-.95-1.87v-.14h7.21c5.17,0,7.28,2.45,7.28,5.55,0,2.31-1.33,4.08-3.03,4.9,2.55.68,4.87,2.86,4.87,6.47,0,4.19-3.03,6.91-8.03,6.91h-8.3v-.14ZM48.65,9.77c2.62,0,3.78-1.19,3.78-2.99s-1.26-2.82-3.57-2.82h-2.69v5.82h2.48ZM49.19,21.24c3.2,0,5.07-1.5,5.07-4.08,0-2.89-2.31-4.12-5-4.12h-3.1v8.2h3.03Z"/><path class="uuid-bce9f288-9df9-488e-ad0d-4962c438832d" d="M59.81,24.37c.58-.44.95-1.12.95-1.87V2.69c0-.78-.37-1.43-.95-1.87v-.14h5.58v.14c-.61.44-.99,1.09-.99,1.87v19.81c0,.75.37,1.43.99,1.87v.14h-5.58v-.14Z"/><path class="uuid-bce9f288-9df9-488e-ad0d-4962c438832d" d="M72.2,24.37c.61-.44.95-1.12.95-1.87V3.95h-4.73c-.82,0-1.5.34-1.77.88h-.2l.65-4.15h15.76l.65,4.15h-.17c-.27-.54-.95-.88-1.77-.88h-4.76v18.55c0,.75.37,1.43.99,1.87v.14h-5.58v-.14Z"/><path class="uuid-bce9f288-9df9-488e-ad0d-4962c438832d" d="M85.54,16.3V2.69c0-.78-.37-1.43-.95-1.87v-.14h5.65v.14c-.61.44-.99,1.09-.99,1.87v13.61c0,3.64,1.43,5.55,4.29,5.55s4.32-1.91,4.32-5.55V2.69c0-.78-.37-1.43-.99-1.87v-.14h5.65v.14c-.61.44-.99,1.09-.99,1.87v13.61c0,5.55-2.72,8.88-8,8.88s-8-3.33-8-8.88Z"/><path class="uuid-bce9f288-9df9-488e-ad0d-4962c438832d" d="M104.39,22.39l4.39-19.6c.17-.82,0-1.5-.82-1.97v-.14h9.49v.14c-.85.51-.99,1.16-.82,1.97l4.39,19.6c.24,1.02.78,1.6,1.33,1.97v.14h-5.58v-.14c.78-.44,1.05-1.09.85-1.97l-.95-4.29h-7.93l-.95,4.29c-.17.82,0,1.5.85,1.97v.14h-5.58v-.14c.58-.37,1.09-.99,1.33-1.97ZM115.93,14.84l-2.45-10.89h-1.53l-2.45,10.89h6.43Z"/><path class="uuid-bce9f288-9df9-488e-ad0d-4962c438832d" d="M129.2,24.37v.14h-5.58v-.14c.58-.44.95-1.12.95-1.87V2.69c0-.78-.37-1.43-.95-1.87v-.14h7.45c5.21,0,8.44,2.45,8.44,6.77,0,3.27-2.08,5.44-5.45,6.23,3.4,1.46,3.68,9.77,7.76,9.77.34,0,.44.07.44.27,0,.44-.85,1.16-2.18,1.16-6.36,0-5.96-10.41-10.11-10.41h-1.77v8.03c0,.75.37,1.43.99,1.87ZM131.28,11.2c2.89,0,4.59-1.29,4.59-3.68,0-2.52-1.57-3.57-4.59-3.57h-3.06v7.25h3.06Z"/><path class="uuid-bce9f288-9df9-488e-ad0d-4962c438832d" d="M147.03,24.37c.61-.44.99-1.12.99-1.87v-7.18l-6.3-12.63c-.44-.88-1.09-1.57-1.7-1.87v-.14h5.82v.14c-.78.48-.78,1.02-.37,1.87l4.39,8.78,4.36-8.78c.41-.85.41-1.4-.37-1.87v-.14h5.82v.14c-.61.31-1.26.99-1.7,1.87l-6.3,12.63v7.18c0,.75.37,1.43.99,1.87v.14h-5.62v-.14Z"/></svg>