<?xml version="1.0" encoding="UTF-8"?>
<svg id="uuid-681fb150-2114-4f69-bc99-dcbabdae2b05" xmlns="http://www.w3.org/2000/svg" version="1.1" viewBox="0 0 400 77.1">
  <!-- Generator: Adobe Illustrator 29.3.1, SVG Export Plug-In . SVG Version: 2.1.0 Build 151)  -->
  <defs>
    <style>
      .st0 {
        fill: #1c2024;
      }
    </style>
  </defs>
  <path class="st0" d="M12.9,75.2v.3H0v-.3c1.3-1,2.1-2.4,2.1-4.2v-37.5c0-1.7-.8-3.2-2.1-4.2v-.3h24.4c10.6,0,17.7,6.1,17.7,14.6s-4.9,12-11.9,13.6c7.6,4.5,10.3,15.7,16.1,15.7s.9.2.9.5c0,1-1.7,2.7-5.4,2.7-11.9,0-12.5-16.6-24.4-16.6h-6.8v11.4c0,1.7.8,3.2,2.1,4.2h0ZM24.4,51.8c5.4,0,8.9-3,8.9-7.5s-3.5-7.4-8.9-7.4h-13.6v14.9h13.6Z"/>
  <path class="st0" d="M84.7,56.8c-.9-1.2-2.4-1.9-4.1-1.9h-21.3v12.7h27.3c1.7,0,3.3-.8,3.8-1.9h.4l-1.5,9.7h-40.8v-.3c1.3-1,2.1-2.4,2.1-4.2v-37.5c0-1.7-.8-3.2-2.1-4.2v-.3h38.9l1.5,9.7h-.4c-.6-1.2-2.1-1.9-4-1.9h-25.3v10.2h21.3c1.7,0,3.2-.7,4.1-1.8h.3v11.6h-.3Z"/>
  <path class="st0" d="M106.6,75.2v.3h-12.9v-.3c1.3-1,2.1-2.4,2.1-4.2v-37.5c0-1.7-.8-3.2-2.1-4.2v-.3h12.9v.3c-1.3,1-2.1,2.5-2.1,4.2v15.8l18.2-15.8c1.9-1.6,2.4-3.1,1.3-4.2v-.3h16.7v.3c-1,.3-3.8,2.5-5.8,4.2l-14.2,12.3c10.5,4.8,10.3,23.9,22.2,23.9s7.6-2.6,8.3-2.6.9.5.9,1.8c0,3.5-4,8.1-11,8.1-16.8,0-16.9-23.2-27.1-25.4l-9.5,8.3v11.1c0,1.7.8,3.2,2.1,4.2h0Z"/>
  <path class="st0" d="M143.4,60.8c1.3-1,2.1-2.5,2.1-4.2v-23.1c0-1.7-.8-3.2-2.1-4.2v-.3h12.9v.3c-1.3.9-2.1,2.5-2.1,4.2v23.1c0,1.7.8,3.2,2.1,4.2v.3h-12.9s0-.3,0-.3Z"/>
  <path class="st0" d="M161.5,75.2c1.3-1,2.1-2.4,2.1-4.2v-37.5c0-1.7-.8-3.2-2.1-4.2v-.3h12.9v.3c-1.3,1-2.1,2.5-2.1,4.2,0,8.7,22.5,16.8,26.4,23.7v-23.7c0-1.7-.8-3.2-2.1-4.2v-.3h12.9v.3c-1.3,1-2.1,2.5-2.1,4.2v37.5c0,1.7.7,3.2,2.1,4.2v.3h-12.9v-.3c1.3-1,2.1-2.4,2.1-4.2,0-9.3-22.8-17.4-26.4-24.1v24.1c0,1.7.8,3.2,2.1,4.2v.3h-12.9v-.3Z"/>
  <path class="st0" d="M214.6,75.2c1.3-1,2.1-2.4,2.1-4.2v-37.5c0-1.7-.8-3.2-2.1-4.2v-.3h21c18.3,0,26.2,10.9,26.2,23.4s-9.7,23-27.2,23h-20v-.3h0ZM234.6,67.6c11.9,0,18.5-5.3,18.5-15.3s-6.2-15.3-18-15.3h-9.7v30.7h9.2,0Z"/>
  <path class="st0" d="M265.1,75.2c1.3-1,2.1-2.4,2.1-4.2v-37.5c0-1.7-.8-3.2-2.1-4.2v-.3h12.9v.3c-1.3,1-2.1,2.5-2.1,4.2v34.1h25.1c1.7,0,3.3-.8,3.8-1.9h.4l-1.5,9.7h-38.6v-.3h0Z"/>
  <path class="st0" d="M343.8,56.8c-.9-1.2-2.5-1.9-4.1-1.9h-21.3v12.7h27.3c1.7,0,3.3-.8,3.8-1.9h.4l-1.5,9.7h-40.8v-.3c1.3-1,2.1-2.4,2.1-4.2v-37.5c0-1.7-.8-3.2-2.1-4.2v-.3h38.9l1.5,9.7h-.4c-.6-1.2-2.1-1.9-4-1.9h-25.3v10.2h21.3c1.6,0,3.2-.7,4.1-1.8h.3v11.6h-.3Z"/>
  <path class="st0" d="M352.8,75.2c1.3-1,2.1-2.4,2.1-4.2v-37.5c0-1.7-.8-3.2-2.1-4.2v-.3h21c18.3,0,26.2,10.9,26.2,23.4s-9.7,23-27.2,23h-20v-.3h0ZM372.8,67.6c11.9,0,18.5-5.3,18.5-15.3s-6.2-15.3-18-15.3h-9.7v30.7h9.2,0Z"/>
  <path class="st0" d="M.2,12.5C.2,5.6,5.4,0,12.5,0s5.7,1.6,6.8,1.6.6-.2.8-.4h.2v5.1h-.1c-1.7-1.9-4.9-3-7.6-3-5.1,0-8.8,4-8.8,9.3s3.9,9.4,9.1,9.4,3-.4,4.1-1v-6c0-.8-.4-1.5-1-1.9h0c0-.1,5.6-.1,5.6-.1h0c-.6.6-1,1.3-1,2.1v5.1c0,.9.4,1.5.9,1.7h0c-2,1.8-4.8,3.4-8.7,3.4-7.3,0-12.7-5.6-12.7-12.7Z"/>
  <path class="st0" d="M23.2,10.2c0-4.6,3.6-8.3,8.2-8.3s8.1,3.7,8.1,8.3-3.6,8.4-8.1,8.4-8.2-3.7-8.2-8.4ZM31.4,15.2c2.7,0,4.7-2.1,4.7-5s-2-5-4.7-5-4.7,2.1-4.7,5,2,5,4.7,5Z"/>
  <path class="st0" d="M41.6,24.4c.6-.4,1-1.1,1-1.9V2.7c0-.8-.4-1.4-1-1.9h0c0-.1,7.2-.1,7.2-.1,5.2,0,7.3,2.5,7.3,5.6s-1.3,4.1-3,4.9c2.5.7,4.9,2.9,4.9,6.5s-3,6.9-8,6.9h-8.3ZM48.7,9.8c2.6,0,3.8-1.2,3.8-3s-1.3-2.8-3.6-2.8h-2.7v5.8h2.5ZM49.2,21.2c3.2,0,5.1-1.5,5.1-4.1s-2.3-4.1-5-4.1h-3.1v8.2h3Z"/>
  <path class="st0" d="M59.8,24.4c.6-.4,1-1.1,1-1.9V2.7c0-.8-.4-1.4-1-1.9h0c0-.1,5.6-.1,5.6-.1h0c-.6.6-1,1.2-1,2v19.8c0,.8.4,1.4,1,1.9h0c0,.1-5.6.1-5.6.1,0,0,0-.1,0-.1Z"/>
  <path class="st0" d="M72.2,24.4c.6-.4.9-1.1.9-1.9V4h-4.7c-.8,0-1.5.3-1.8.9h-.2l.7-4.2h15.8l.7,4.2h-.2c-.3-.5-.9-.9-1.8-.9h-4.8v18.6c0,.8.4,1.4,1,1.9h0c0,.1-5.6.1-5.6.1h0c0-.1,0-.1,0-.1Z"/>
  <path class="st0" d="M85.5,16.3V2.7c0-.8-.4-1.4-.9-1.9h0c0-.1,5.7-.1,5.7-.1h0c-.6.6-1,1.2-1,2v13.6c0,3.6,1.4,5.5,4.3,5.5s4.3-1.9,4.3-5.5V2.7c0-.8-.4-1.4-1-1.9h0c0-.1,5.7-.1,5.7-.1h0c-.6.6-1,1.2-1,2v13.6c0,5.5-2.7,8.9-8,8.9s-8-3.3-8-8.9h0Z"/>
  <path class="st0" d="M104.4,22.4l4.4-19.6c.2-.8,0-1.5-.8-2h0c0-.1,9.5-.1,9.5-.1h0c-.8.6-1,1.3-.8,2.1l4.4,19.6c.2,1,.8,1.6,1.3,2h0c0,.1-5.6.1-5.6.1h0c.8-.6,1.1-1.2.8-2.1l-.9-4.3h-7.9l-.9,4.3c-.2.8,0,1.5.8,2h0c0,.1-5.6.1-5.6.1h0c.6-.5,1.1-1.1,1.3-2.1ZM115.9,14.8l-2.4-10.9h-1.5l-2.4,10.9s6.4,0,6.4,0Z"/>
  <path class="st0" d="M129.2,24.4h0c0,.1-5.6.1-5.6.1h0c.6-.6.9-1.3.9-2V2.7c0-.8-.4-1.4-.9-1.9h0c0-.1,7.4-.1,7.4-.1,5.2,0,8.4,2.5,8.4,6.8s-2.1,5.4-5.4,6.2c3.4,1.5,3.7,9.8,7.8,9.8s.4,0,.4.3c0,.4-.9,1.2-2.2,1.2-6.4,0-6-10.4-10.1-10.4h-1.8v8c0,.8.4,1.4,1,1.9h0ZM131.3,11.2c2.9,0,4.6-1.3,4.6-3.7s-1.6-3.6-4.6-3.6h-3.1v7.3h3.1Z"/>
  <path class="st0" d="M147,24.4c.6-.4,1-1.1,1-1.9v-7.2l-6.3-12.6c-.4-.9-1.1-1.6-1.7-1.9h0c0-.1,5.8-.1,5.8-.1h0c-.8.6-.8,1.2-.4,2l4.4,8.8,4.4-8.8c.4-.9.4-1.4-.4-1.9h0c0-.1,5.8-.1,5.8-.1h0c-.6.5-1.3,1.1-1.7,2l-6.3,12.6v7.2c0,.8.4,1.4,1,1.9h0c0,.1-5.6.1-5.6.1h0c0-.1,0-.1,0-.1Z"/>
</svg>