<?xml version="1.0" encoding="UTF-8"?><svg id="uuid-87d77741-caa9-420b-811d-d86dcffbef97" xmlns="http://www.w3.org/2000/svg" viewBox="0 0 1200 1200"><polygon points="402 1000 402 1195.17 597.17 1000 402 804.83 402 1000"/><polygon points="802 795.17 997.17 600 802 404.83 802 795.17"/><rect x="802" y="202" width="196" height="196"/><polygon points="1195.17 202 1002 202 1002 395.17 1195.17 202"/><polygon points="1000 597.17 1195.17 402 1000 402 804.83 402 1000 597.17"/><rect x="802" y="802" width="196" height="196"/><polygon points="1195.17 998 1002 804.83 1002 998 1195.17 998"/><polygon points="804.83 798 1000 798 1195.17 798 1000 602.83 804.83 798"/><polygon points="798 1000 798 804.83 602.83 1000 798 1195.17 798 1000"/><polygon points="998 1002 804.83 1002 998 1195.17 998 1002"/><polygon points="998 198 998 4.83 804.83 198 998 198"/><polygon points="795.17 802 404.83 802 600 997.17 795.17 802"/><polygon points="395.17 798 200 602.83 4.83 798 200 798 395.17 798"/><rect x="202" y="802" width="196" height="196"/><polygon points="202 1002 202 1195.17 395.17 1002 202 1002"/><polygon points="398 404.83 202.83 600 398 795.17 398 404.83"/><polygon points="404.83 398 795.17 398 600 202.83 404.83 398"/><rect x="202" y="202" width="196" height="196"/><polygon points="202 198 395.17 198 202 4.83 202 198"/><polygon points="402 200 402 395.17 597.17 200 402 4.83 402 200"/><polygon points="395.17 402 200 402 4.83 402 200 597.17 395.17 402"/><polygon points="798 200 798 4.83 602.83 200 798 395.17 798 200"/><polygon points="4.83 202 198 395.17 198 202 4.83 202"/><polygon points="198 804.83 4.83 998 198 998 198 804.83"/></svg>