<?xml version="1.0" encoding="UTF-8"?><svg id="uuid-9eab2eea-6474-4912-b0f0-7a13a817f0e3" xmlns="http://www.w3.org/2000/svg" viewBox="0 0 1200 1200"><polygon points="1190.34 204 996 204 996 9.66 796 209.66 796 9.66 600 205.66 404 9.66 404 209.66 204 9.66 204 204 9.66 204 209.66 404 9.66 404 205.66 600 9.66 796 209.66 796 9.66 996 204 996 204 1190.34 404 990.34 404 1190.34 600 994.34 796 1190.34 796 990.34 996 1190.34 996 996 1190.34 996 990.34 796 1190.34 796 994.34 600 1190.34 404 990.34 404 1190.34 204"/></svg>