<?xml version="1.0" encoding="UTF-8"?><svg id="uuid-985b99e5-f43d-43a6-99d7-1ff4a5316dbb" xmlns="http://www.w3.org/2000/svg" viewBox="0 0 800 100"><defs><style>.uuid-33fbb01b-67b0-421d-afd3-184353a052ba{fill:#1c2024;}</style></defs><path class="uuid-33fbb01b-67b0-421d-afd3-184353a052ba" d="M0,83.59c0-1.05,8.23-1.45,8.23-14.92V21.65c0-1.86-.81-3.39-2.26-4.44v-.32h13.39v.32c-1.45,1.05-2.26,2.58-2.26,4.44v47.02c0,10.32-6.37,16.29-13.23,16.29-2.5,0-3.87-.89-3.87-1.37Z"/><path class="uuid-33fbb01b-67b0-421d-afd3-184353a052ba" d="M24.27,45.2c0-17.18,13.15-30.17,30.81-30.17s30.89,12.99,30.89,30.17-13.15,30-30.89,30-30.81-12.91-30.81-30ZM55.08,67.3c12.91,0,22.1-9.11,22.1-22.1s-9.2-22.26-22.1-22.26-22.02,9.28-22.02,22.26,9.11,22.1,22.02,22.1Z"/><path class="uuid-33fbb01b-67b0-421d-afd3-184353a052ba" d="M88.78,60.12c0-6.29,4.76-11.05,10.49-11.05,4.44,0,7.1,2.74,7.1,4.6,0,.4-.16.56-.4.56-.48,0-1.37-.56-3.23-.56-3.63,0-5.73,2.5-5.73,5.56,0,5,5.73,8.07,12.82,8.07,7.83,0,12.91-3.79,12.91-9.19,0-13.87-31.86-11.61-31.86-29.04,0-8.55,7.66-14.03,17.34-14.03,8.95,0,14.19,4.6,16.78,4.6.73,0,1.37-.4,1.78-.97h.4v12.1h-.33c-3.87-4.03-11.13-7.9-17.99-7.9-5.48,0-9.2,2.34-9.2,5.89,0,10.24,31.86,9.76,31.86,28.88,0,9.92-8.63,17.58-21.86,17.58-12.42,0-20.89-6.61-20.89-15.08Z"/><path class="uuid-33fbb01b-67b0-421d-afd3-184353a052ba" d="M171.93,47.94c-.97-1.29-2.58-2.1-4.44-2.1h-20.81v19.6h27.42c1.85,0,3.55-.89,4.19-2.18h.4l-1.53,10.08h-41.54v-.32c1.37-1.05,2.26-2.66,2.26-4.44V21.65c0-1.86-.89-3.39-2.26-4.44v-.32h39.28l1.53,10.08h-.48c-.64-1.37-2.26-2.18-4.27-2.18h-25v13.15h20.81c1.85,0,3.47-.81,4.44-2.1h.32v12.1h-.32Z"/><path class="uuid-33fbb01b-67b0-421d-afd3-184353a052ba" d="M195.96,73.03v.32h-13.39v-.32c1.37-1.05,2.26-2.66,2.26-4.44V21.65c0-1.86-.89-3.39-2.26-4.44v-.32h24.6c12.99,0,21.38,6.69,21.38,18.15s-8.47,18.23-21.62,18.23h-13.31v15.33c0,1.78.89,3.39,2.34,4.44ZM207.17,45.36c7.9,0,12.58-3.39,12.58-10.24s-4.6-10.32-12.66-10.32h-13.47v20.57h13.55Z"/><path class="uuid-33fbb01b-67b0-421d-afd3-184353a052ba" d="M268.3,73.03c1.45-1.05,2.34-2.66,2.34-4.44v-18.79h-27.02v18.79c0,1.78.89,3.39,2.34,4.44v.32h-13.39v-.32c1.37-1.05,2.26-2.66,2.26-4.44V21.65c0-1.86-.89-3.39-2.26-4.44v-.32h13.39v.32c-1.45,1.05-2.34,2.58-2.34,4.44v20.25h27.02v-20.25c0-1.86-.89-3.39-2.34-4.44v-.32h13.47v.32c-1.45,1.05-2.34,2.58-2.34,4.44v46.94c0,1.78.89,3.39,2.34,4.44v.32h-13.47v-.32Z"/><path class="uuid-33fbb01b-67b0-421d-afd3-184353a052ba" d="M304.25,73.03c1.37-1.05,2.26-2.66,2.26-4.44V21.65c0-1.86-.89-3.39-2.26-4.44v-.32h13.39v.32c-1.45,1.05-2.34,2.58-2.34,4.44v43.8h33.23c1.94,0,3.55-.89,4.2-2.18h.48l-1.37,10.08h-47.59v-.32Z"/><path class="uuid-33fbb01b-67b0-421d-afd3-184353a052ba" d="M352.56,40.04c-1.05-1.13-2.66-1.77-4.44-1.77h-13.39v11.78h17.67c1.85,0,3.55-.81,4.11-2.1h.48l-1.37,8.87h-31.38v-.32c1.37-1.05,2.26-2.58,2.26-4.44v-30.41c0-1.86-.89-3.39-2.26-4.44v-.32h29.92l1.37,8.87h-.48c-.64-1.29-2.26-2.1-4.27-2.1h-16.05v8.15h13.39c1.78,0,3.39-.73,4.44-1.86h.32v10.08h-.32Z"/><path class="uuid-33fbb01b-67b0-421d-afd3-184353a052ba" d="M360.05,45.36c0-17.18,12.74-30.33,29.76-30.33,12.74,0,21.78,7.34,21.78,16.62,0,7.18-5.48,11.94-11.78,11.94s-8.71-4.92-8.71-6.53c0-.32.08-.57.4-.57.81,0,2.34,2.02,5.57,2.02,3.79,0,6.53-2.74,6.53-6.45,0-5.32-5.32-9.11-12.98-9.11-12.42,0-21.78,8.95-21.78,22.26s9.11,22.1,22.66,22.1,20-8.31,21.54-8.31c.32,0,.48.32.48.89,0,3.87-8.07,15.32-23.79,15.32-16.54,0-29.68-12.5-29.68-29.84Z"/><path class="uuid-33fbb01b-67b0-421d-afd3-184353a052ba" d="M415.69,45.2c0-17.18,13.15-30.17,30.81-30.17s30.89,12.99,30.89,30.17-13.15,30-30.89,30-30.81-12.91-30.81-30ZM446.5,67.3c12.91,0,22.1-9.11,22.1-22.1s-9.2-22.26-22.1-22.26-22.02,9.28-22.02,22.26,9.11,22.1,22.02,22.1Z"/><path class="uuid-33fbb01b-67b0-421d-afd3-184353a052ba" d="M481.9,73.03c1.37-1.05,2.26-2.66,2.26-4.44V21.65c0-1.86-.89-3.39-2.26-4.44v-.32h13.39v.32c-1.45,1.05-2.34,2.58-2.34,4.44v.08c0,11.45,24.6,22.1,28.8,31.29v-31.38c0-1.86-.89-3.39-2.34-4.44v-.32h13.39v.32c-1.37,1.05-2.26,2.58-2.26,4.44v46.94c0,1.78.88,3.39,2.26,4.44v.32h-13.39v-.32c1.45-1.05,2.34-2.66,2.34-4.44v-.08c0-11.94-24.84-22.74-28.8-31.78v31.86c0,1.78.89,3.39,2.34,4.44v.32h-13.39v-.32Z"/><path class="uuid-33fbb01b-67b0-421d-afd3-184353a052ba" d="M553.59,73.03c1.45-1.05,2.34-2.66,2.34-4.44V24.79h-15.89c-1.94,0-3.55.89-4.2,2.18h-.48l1.53-10.08h46.78l1.53,10.08h-.4c-.64-1.29-2.26-2.18-4.19-2.18h-15.89v43.8c0,1.78.89,3.39,2.34,4.44v.32h-13.47v-.32Z"/><path class="uuid-33fbb01b-67b0-421d-afd3-184353a052ba" d="M624.07,47.94c-.97-1.29-2.58-2.1-4.44-2.1h-20.81v19.6h27.42c1.85,0,3.55-.89,4.19-2.18h.4l-1.53,10.08h-41.54v-.32c1.37-1.05,2.26-2.66,2.26-4.44V21.65c0-1.86-.89-3.39-2.26-4.44v-.32h39.28l1.53,10.08h-.48c-.64-1.37-2.26-2.18-4.27-2.18h-25v13.15h20.81c1.85,0,3.47-.81,4.44-2.1h.32v12.1h-.32Z"/></svg>