<?xml version="1.0" encoding="UTF-8"?><svg id="uuid-07e09a70-e178-4f24-b8a0-a0970369ea41" xmlns="http://www.w3.org/2000/svg" viewBox="0 0 800 100"><defs><style>.uuid-4f457292-479a-4701-9f44-fabfe89c8e18{fill:#1c2024;}</style></defs><path class="uuid-4f457292-479a-4701-9f44-fabfe89c8e18" d="M0,77.91c1.37-1.05,2.26-2.66,2.26-4.44V26.53c0-1.86-.89-3.39-2.26-4.44v-.32h13.95v.32c-1.61.89-2.5,2.66-1.05,4.28l15.65,17.1,15.73-17.1c1.45-1.61.57-3.39-1.05-4.28v-.32h13.95v.32c-1.45,1.05-2.34,2.58-2.34,4.44v46.94c0,1.78.89,3.39,2.34,4.44v.32h-13.47v-.32c1.45-1.05,2.34-2.66,2.34-4.44v-36.22l-17.34,18.96h-.32l-17.34-19.04v36.3c0,1.78.89,3.39,2.34,4.44v.32H0v-.32Z"/><path class="uuid-4f457292-479a-4701-9f44-fabfe89c8e18" d="M63.71,73.31l14.6-46.62c.57-1.77.48-3.47-1.61-4.6v-.32h22.34v.32c-2.02,1.21-2.18,2.74-1.61,4.6l14.6,46.62c.73,2.18,2.18,3.79,3.55,4.6v.32h-13.63v-.32c2.02-1.13,2.26-2.58,1.61-4.6l-3.23-10.16h-24.84l-3.23,10.24c-.57,1.78-.48,3.39,1.53,4.52v.32h-13.63v-.32c1.05-.65,2.82-2.18,3.55-4.6ZM97.9,55.24l-8.07-25.57h-3.95l-7.99,25.57h20Z"/><path class="uuid-4f457292-479a-4701-9f44-fabfe89c8e18" d="M131.93,77.91v.32h-13.39v-.32c1.37-1.05,2.26-2.66,2.26-4.44V26.53c0-1.86-.89-3.39-2.26-4.44v-.32h24.6c12.58,0,20.89,6.69,20.89,17.02,0,8.63-5.81,14.2-14.28,16.05,8.55,4.92,11.13,20.89,19.52,20.89.81,0,1.13.24,1.13.65,0,1.05-1.94,2.82-5.57,2.82-14.28,0-14.92-22.34-27.34-22.34h-7.9v16.62c0,1.78.89,3.39,2.34,4.44ZM143.39,48.95c7.18,0,11.77-3.71,11.77-9.76s-4.44-9.52-11.86-9.52h-13.71v19.28h13.79Z"/><path class="uuid-4f457292-479a-4701-9f44-fabfe89c8e18" d="M185.07,77.91c1.45-1.05,2.34-2.66,2.34-4.44v-14.76l-18.79-32.18c-1.13-1.94-2.66-3.71-4.11-4.44v-.32h14.36v.32c-1.85,1.13-1.93,2.58-.88,4.44l13.79,23.55,13.79-23.55c1.13-1.94.97-3.31-.81-4.44v-.32h14.28v.32c-1.45.73-2.99,2.5-4.03,4.44l-18.79,32.18v14.76c0,1.78.88,3.39,2.34,4.44v.32h-13.47v-.32Z"/><path class="uuid-4f457292-479a-4701-9f44-fabfe89c8e18" d="M236.36,77.91c1.13-.73,1.94-2.1,1.94-3.47V25.56c0-1.45-.81-2.74-1.94-3.47v-.32h10.16v.32c-1.53.89-1.86,2.42-.89,3.79l11.29,15.16,11.37-15.16c.97-1.37.64-2.98-.97-3.79v-.32h10.24v.32c-1.13.73-1.94,2.02-1.94,3.47v48.88c0,1.37.81,2.74,1.94,3.47v.32h-9.68v-.32c1.13-.73,1.85-2.1,1.85-3.47v-40.97l-12.67,16.94h-.32l-12.66-16.94v40.97c0,1.37.81,2.74,1.94,3.47v.32h-9.68v-.32Z"/><path class="uuid-4f457292-479a-4701-9f44-fabfe89c8e18" d="M281.92,49.52c0-17.42,13.23-29.04,28.23-29.04,8.07,0,12.42,3.87,14.12,3.87.56,0,.88-.24,1.13-.73h.64v8.87h-.48c-1.53-2.5-7.26-6.62-15.33-6.62-10.73,0-22.42,8.23-22.42,23.55s11.21,24.68,24.84,24.68c10.57,0,16.61-4.36,17.82-4.36.16,0,.33.16.33.57,0,2.9-7.66,9.19-19.52,9.19-15.89,0-29.36-12.18-29.36-30Z"/><path class="uuid-4f457292-479a-4701-9f44-fabfe89c8e18" d="M311.59,51.21c0-5.24,4.6-8.63,10.65-8.63,3.87,0,7.82,1.45,12.1,2.99v-20c0-1.45-.81-2.74-1.94-3.47v-.32h9.68v.32c-1.13.73-1.93,2.02-1.93,3.47v22.02c3.55,1.13,7.42,1.94,11.77,1.94,3.47,0,6.29-.48,9.2-1.61v-22.34c0-1.45-.81-2.74-1.94-3.47v-.32h9.76v.32c-1.13.73-1.93,2.02-1.93,3.47v48.88c0,1.37.81,2.74,1.93,3.47v.32h-9.76v-.32c1.13-.73,1.94-2.1,1.94-3.47v-21.21c-2.82.97-6.69,1.45-9.84,1.45-4.03,0-7.74-.73-11.13-1.78v21.54c0,1.37.81,2.74,1.93,3.47v.32h-9.68v-.32c1.13-.73,1.94-2.1,1.94-3.47v-23.55c-4.52-1.69-8.47-3.31-12.1-3.31-3.87,0-6.37,2.02-6.37,5.08,0,3.95,3.87,4.11,3.87,4.76,0,.32-.48.73-1.77.73-3.31,0-6.37-2.74-6.37-6.94Z"/><path class="uuid-4f457292-479a-4701-9f44-fabfe89c8e18" d="M399.82,46.69c-.73-.97-2.02-1.69-3.47-1.69h-13.15v27.83h17.66c1.53,0,2.82-.65,3.39-1.78h.4l-1.13,7.18h-28.07v-.32c1.13-.73,1.94-2.1,1.94-3.47V25.56c0-1.45-.81-2.74-1.94-3.47v-.32h25.81l1.13,7.18h-.48c-.57-1.21-1.85-1.78-3.39-1.78h-15.33v12.42h13.15c1.45,0,2.74-.73,3.47-1.69h.32v8.79h-.32Z"/><path class="uuid-4f457292-479a-4701-9f44-fabfe89c8e18" d="M408.28,77.91c1.13-.73,1.94-2.1,1.94-3.47V25.56c0-1.45-.81-2.74-1.94-3.47v-.32h9.68v.32c-1.13.73-1.94,2.02-1.94,3.47v.16c0,13.55,17.82,24.76,20.89,34.52V25.56c0-1.45-.81-2.74-1.93-3.47v-.32h9.68v.32c-1.13.73-1.93,2.02-1.93,3.47v48.88c0,1.37.81,2.74,1.93,3.47v.32h-9.68v-.32c1.13-.73,1.93-2.1,1.93-3.47v-.16c0-13.23-17.91-25.33-20.89-34.76v34.92c0,1.37.81,2.74,1.94,3.47v.32h-9.68v-.32Z"/><path class="uuid-4f457292-479a-4701-9f44-fabfe89c8e18" d="M460.94,77.91v.32h-9.68v-.32c1.13-.73,1.94-2.1,1.94-3.47V25.56c0-1.45-.81-2.74-1.94-3.47v-.32h15.08c11.78,0,18.63,5.65,18.63,15.24,0,8.31-5.24,13.55-13.63,15,6.78,3.15,7.9,24.36,18.55,24.36.73,0,.97.16.97.64,0,.97-1.7,2.1-4.2,2.1-13.95,0-13.95-25.97-22.66-25.97h-5v21.29c0,1.37.81,2.74,1.94,3.47ZM466.59,47.74c7.82,0,12.5-3.79,12.5-10.65s-4.11-9.92-12.5-9.92h-7.58v20.57h7.58Z"/><path class="uuid-4f457292-479a-4701-9f44-fabfe89c8e18" d="M501.42,77.91c1.13-.73,1.94-2.1,1.94-3.47v-21.54l-14.19-27.58c-.81-1.45-1.86-2.82-3.07-3.23v-.32h9.84v.32c-1.37.81-1.29,1.86-.57,3.23l10.89,21.13,10.89-21.13c.73-1.45.73-2.42-.64-3.23v-.32h9.92v.32c-1.21.4-2.34,1.78-3.06,3.23l-14.2,27.58v21.54c0,1.37.81,2.74,1.94,3.47v.32h-9.68v-.32Z"/><path class="uuid-4f457292-479a-4701-9f44-fabfe89c8e18" d="M557.14,77.91v.32h-13.39v-.32c1.37-1.05,2.26-2.66,2.26-4.44V26.53c0-1.86-.89-3.39-2.26-4.44v-.32h13.39v.32c-1.45,1.05-2.34,2.58-2.34,4.44v21.29l21.45-21.29c1.86-1.86,2.26-3.31.81-4.44v-.32h16.13v.32c-1.13.4-3.79,2.58-4.84,3.63l-16.45,16.21,21.05,31.54c1.21,1.86,2.5,3.63,3.95,4.44v.32h-14.92v-.32c1.69-1.21,2.02-2.58.81-4.44l-16.94-25.57-11.05,10.81v14.76c0,1.78.89,3.39,2.34,4.44Z"/><path class="uuid-4f457292-479a-4701-9f44-fabfe89c8e18" d="M635.29,52.82c-.97-1.29-2.58-2.1-4.44-2.1h-20.81v19.6h27.42c1.85,0,3.55-.89,4.19-2.18h.4l-1.53,10.08h-41.54v-.32c1.37-1.05,2.26-2.66,2.26-4.44V26.53c0-1.86-.89-3.39-2.26-4.44v-.32h39.28l1.53,10.08h-.48c-.64-1.37-2.26-2.18-4.27-2.18h-25v13.15h20.81c1.85,0,3.47-.81,4.44-2.1h.32v12.1h-.32Z"/><path class="uuid-4f457292-479a-4701-9f44-fabfe89c8e18" d="M645.92,77.91c1.37-1.05,2.26-2.66,2.26-4.44V26.53c0-1.86-.89-3.39-2.26-4.44v-.32h13.39v.32c-1.45,1.05-2.34,2.58-2.34,4.44v46.94c0,1.78.89,3.39,2.34,4.44v.32h-13.39v-.32Z"/><path class="uuid-4f457292-479a-4701-9f44-fabfe89c8e18" d="M680.12,77.91c1.45-1.05,2.34-2.66,2.34-4.44V29.67h-15.89c-1.94,0-3.55.89-4.2,2.18h-.48l1.53-10.08h46.78l1.53,10.08h-.4c-.64-1.29-2.26-2.18-4.19-2.18h-15.89v43.8c0,1.78.89,3.39,2.34,4.44v.32h-13.47v-.32Z"/><path class="uuid-4f457292-479a-4701-9f44-fabfe89c8e18" d="M750.04,77.91c1.45-1.05,2.34-2.66,2.34-4.44v-18.79h-27.02v18.79c0,1.78.89,3.39,2.34,4.44v.32h-13.39v-.32c1.37-1.05,2.26-2.66,2.26-4.44V26.53c0-1.86-.89-3.39-2.26-4.44v-.32h13.39v.32c-1.45,1.05-2.34,2.58-2.34,4.44v20.25h27.02v-20.25c0-1.86-.89-3.39-2.34-4.44v-.32h13.47v.32c-1.45,1.05-2.34,2.58-2.34,4.44v46.94c0,1.78.89,3.39,2.34,4.44v.32h-13.47v-.32Z"/></svg>