<?xml version="1.0" encoding="UTF-8"?><svg id="uuid-cafab7e0-c54d-48e3-b1c5-a2bf2f25a983" xmlns="http://www.w3.org/2000/svg" viewBox="0 0 800 100"><defs><style>.uuid-44d028e6-3519-41d2-af9d-a1aeddc43219{fill:#1c2024;}</style></defs><path class="uuid-44d028e6-3519-41d2-af9d-a1aeddc43219" d="M0,83.59c0-1.05,8.23-1.45,8.23-14.92V21.65c0-1.85-.81-3.39-2.26-4.44v-.32h13.39v.32c-1.45,1.05-2.26,2.58-2.26,4.44v47.02c0,10.32-6.37,16.29-13.23,16.29-2.5,0-3.87-.89-3.87-1.37Z"/><path class="uuid-44d028e6-3519-41d2-af9d-a1aeddc43219" d="M28.06,52.46v-30.81c0-1.85-.89-3.39-2.26-4.44v-.32h13.47v.32c-1.45,1.05-2.34,2.58-2.34,4.44v30.97c0,9.2,5.4,14.6,13.87,14.6s13.87-5.41,13.87-14.6v-30.97c0-1.85-.89-3.39-2.34-4.44v-.32h13.55v.32c-1.45,1.05-2.34,2.58-2.34,4.44v30.81c0,13.95-8.87,22.75-22.74,22.75s-22.75-8.79-22.75-22.75Z"/><path class="uuid-44d028e6-3519-41d2-af9d-a1aeddc43219" d="M82.25,73.03c1.37-1.05,2.26-2.66,2.26-4.44V21.65c0-1.85-.89-3.39-2.26-4.44v-.32h13.39v.32c-1.45,1.05-2.34,2.58-2.34,4.44v43.8h19.52c1.86,0,3.55-.89,4.11-2.18h.48l-1.78,10.08h-33.39v-.32Z"/><path class="uuid-44d028e6-3519-41d2-af9d-a1aeddc43219" d="M105.55,56.65c1.37-1.05,2.26-2.66,2.26-4.44v-30.57c0-1.85-.89-3.47-2.26-4.44v-.32h13.39v.32c-1.45.97-2.34,2.58-2.34,4.44v30.57c0,1.78.89,3.39,2.34,4.44v.32h-13.39v-.32Z"/><path class="uuid-44d028e6-3519-41d2-af9d-a1aeddc43219" d="M124.83,68.43l14.6-46.62c.56-1.78.48-3.47-1.61-4.6v-.32h22.34v.32c-2.02,1.21-2.18,2.74-1.61,4.6l14.6,46.62c.73,2.18,2.18,3.79,3.55,4.6v.32h-13.63v-.32c2.02-1.13,2.26-2.58,1.61-4.6l-3.23-10.16h-24.84l-3.23,10.24c-.56,1.78-.48,3.39,1.53,4.52v.32h-13.63v-.32c1.05-.64,2.82-2.18,3.55-4.6ZM159.03,50.36l-8.07-25.57h-3.95l-7.98,25.57h20Z"/><path class="uuid-44d028e6-3519-41d2-af9d-a1aeddc43219" d="M194.42,73.03c1.37-1.05,2.26-2.66,2.26-4.44V21.65c0-1.85-.89-3.39-2.26-4.44v-.32h13.95v.32c-1.61.89-2.5,2.66-1.05,4.27l15.65,17.1,15.73-17.1c1.45-1.61.56-3.39-1.05-4.27v-.32h13.95v.32c-1.45,1.05-2.34,2.58-2.34,4.44v46.95c0,1.77.89,3.39,2.34,4.44v.32h-13.47v-.32c1.45-1.05,2.34-2.66,2.34-4.44v-36.22l-17.34,18.96h-.32l-17.34-19.03v36.3c0,1.77.89,3.39,2.34,4.44v.32h-13.39v-.32Z"/><path class="uuid-44d028e6-3519-41d2-af9d-a1aeddc43219" d="M256.11,45.2c0-17.18,13.15-30.17,30.81-30.17s30.89,12.98,30.89,30.17-13.15,30-30.89,30-30.81-12.91-30.81-30ZM286.92,67.3c12.91,0,22.1-9.11,22.1-22.1s-9.19-22.26-22.1-22.26-22.02,9.28-22.02,22.26,9.11,22.1,22.02,22.1Z"/><path class="uuid-44d028e6-3519-41d2-af9d-a1aeddc43219" d="M335.7,73.03v.32h-13.39v-.32c1.37-1.05,2.26-2.66,2.26-4.44V21.65c0-1.85-.89-3.39-2.26-4.44v-.32h24.6c12.58,0,20.89,6.69,20.89,17.02,0,8.63-5.81,14.2-14.28,16.05,8.55,4.92,11.13,20.89,19.52,20.89.81,0,1.13.24,1.13.64,0,1.05-1.94,2.82-5.57,2.82-14.28,0-14.92-22.34-27.34-22.34h-7.9v16.62c0,1.77.89,3.39,2.34,4.44ZM347.16,44.07c7.18,0,11.78-3.71,11.78-9.76s-4.44-9.52-11.86-9.52h-13.71v19.28h13.79Z"/><path class="uuid-44d028e6-3519-41d2-af9d-a1aeddc43219" d="M373.52,45.2c0-17.5,12.82-30.17,29.84-30.17,9.68,0,14.68,4.27,17.66,4.27.97,0,1.53-.4,2.02-1.05h.4v12.26h-.32c-4.6-4.68-11.94-7.66-19.12-7.66-12.58,0-21.7,8.87-21.7,22.18s9.03,22.26,22.02,22.26c4.44,0,8.23-.97,11.29-2.5v-14.6c0-1.86-.81-3.39-2.26-4.44v-.32h13.39v.32c-1.45,1.05-2.34,2.58-2.34,4.44v12.42c0,2.1.97,3.47,2.18,3.87v.32c-4.27,3.95-12.1,8.39-22.34,8.39-17.34,0-30.73-12.1-30.73-30Z"/><path class="uuid-44d028e6-3519-41d2-af9d-a1aeddc43219" d="M431.18,68.43l14.6-46.62c.56-1.78.48-3.47-1.61-4.6v-.32h22.34v.32c-2.02,1.21-2.18,2.74-1.61,4.6l14.6,46.62c.73,2.18,2.18,3.79,3.55,4.6v.32h-13.63v-.32c2.02-1.13,2.26-2.58,1.61-4.6l-3.23-10.16h-24.84l-3.23,10.24c-.56,1.78-.48,3.39,1.53,4.52v.32h-13.63v-.32c1.05-.64,2.82-2.18,3.55-4.6ZM465.38,50.36l-8.07-25.57h-3.95l-7.98,25.57h20Z"/><path class="uuid-44d028e6-3519-41d2-af9d-a1aeddc43219" d="M486.01,73.03c1.37-1.05,2.26-2.66,2.26-4.44V21.65c0-1.85-.89-3.39-2.26-4.44v-.32h13.39v.32c-1.45,1.05-2.34,2.58-2.34,4.44v.08c0,11.45,24.6,22.1,28.79,31.29v-31.38c0-1.85-.89-3.39-2.34-4.44v-.32h13.39v.32c-1.37,1.05-2.26,2.58-2.26,4.44v46.95c0,1.77.89,3.39,2.26,4.44v.32h-13.39v-.32c1.45-1.05,2.34-2.66,2.34-4.44v-.08c0-11.94-24.84-22.75-28.79-31.78v31.86c0,1.77.89,3.39,2.34,4.44v.32h-13.39v-.32Z"/></svg>