<?xml version="1.0" encoding="UTF-8"?><svg id="uuid-3bb80a2a-2c3c-464f-b86f-d91157055b4e" xmlns="http://www.w3.org/2000/svg" viewBox="0 0 800 100"><defs><style>.uuid-db210f88-8884-4f03-94c3-d96f8a6bd33e{fill:#1c2024;}</style></defs><path class="uuid-db210f88-8884-4f03-94c3-d96f8a6bd33e" d="M35.73,78.84c1.45-1.05,2.34-2.66,2.34-4.44v-18.79H11.05v18.79c0,1.78.89,3.39,2.34,4.44v.32H0v-.32c1.37-1.05,2.26-2.66,2.26-4.44V27.46c0-1.86-.89-3.39-2.26-4.44v-.32h13.39v.32c-1.45,1.05-2.34,2.58-2.34,4.44v20.25h27.02v-20.25c0-1.86-.89-3.39-2.34-4.44v-.32h13.47v.32c-1.45,1.05-2.34,2.58-2.34,4.44v46.94c0,1.78.89,3.39,2.34,4.44v.32h-13.47v-.32Z"/><path class="uuid-db210f88-8884-4f03-94c3-d96f8a6bd33e" d="M91.86,53.75c-.97-1.29-2.58-2.1-4.44-2.1h-20.81v19.6h27.42c1.86,0,3.55-.89,4.2-2.18h.4l-1.53,10.08h-41.54v-.32c1.37-1.05,2.26-2.66,2.26-4.44V27.46c0-1.86-.89-3.39-2.26-4.44v-.32h39.28l1.53,10.08h-.48c-.65-1.37-2.26-2.18-4.28-2.18h-25v13.15h20.81c1.86,0,3.47-.81,4.44-2.1h.32v12.1h-.32Z"/><path class="uuid-db210f88-8884-4f03-94c3-d96f8a6bd33e" d="M102.49,78.84c1.37-1.05,2.26-2.66,2.26-4.44V27.46c0-1.86-.89-3.39-2.26-4.44v-.32h13.39v.32c-1.45,1.05-2.34,2.58-2.34,4.44v.08c0,11.45,24.6,22.1,28.79,31.29v-31.38c0-1.86-.89-3.39-2.34-4.44v-.32h13.39v.32c-1.37,1.05-2.26,2.58-2.26,4.44v46.94c0,1.78.89,3.39,2.26,4.44v.32h-13.39v-.32c1.45-1.05,2.34-2.66,2.34-4.44v-.08c0-11.94-24.84-22.74-28.79-31.78v31.86c0,1.78.89,3.39,2.34,4.44v.32h-13.39v-.32Z"/><path class="uuid-db210f88-8884-4f03-94c3-d96f8a6bd33e" d="M173.22,77.87v.32h-13.39v-.32c1.37-1.05,2.26-2.66,2.26-4.44V26.49c0-1.86-.89-3.39-2.26-4.44v-.32h24.6c12.58,0,20.89,6.69,20.89,17.02,0,8.63-5.81,14.2-14.28,16.05,8.55,4.92,11.13,20.89,19.52,20.89.81,0,1.13.24,1.13.65,0,1.05-1.94,2.82-5.57,2.82-14.28,0-14.92-22.34-27.34-22.34h-7.9v16.62c0,1.78.89,3.39,2.34,4.44ZM184.67,48.91c7.18,0,11.78-3.71,11.78-9.76s-4.44-9.52-11.86-9.52h-13.71v19.28h13.79Z"/><path class="uuid-db210f88-8884-4f03-94c3-d96f8a6bd33e" d="M226.36,78.84c1.45-1.05,2.34-2.66,2.34-4.44v-14.76l-18.79-32.18c-1.13-1.94-2.66-3.71-4.11-4.44v-.32h14.36v.32c-1.86,1.13-1.94,2.58-.89,4.44l13.79,23.55,13.79-23.55c1.13-1.94.97-3.31-.81-4.44v-.32h14.28v.32c-1.45.73-2.98,2.5-4.03,4.44l-18.79,32.18v14.76c0,1.78.89,3.39,2.34,4.44v.32h-13.47v-.32Z"/><path class="uuid-db210f88-8884-4f03-94c3-d96f8a6bd33e" d="M277.56,78.84c1.37-1.05,2.26-2.66,2.26-4.44V27.46c0-1.86-.89-3.39-2.26-4.44v-.32h21.53c18.71,0,31.78,9.76,31.78,28.23s-12.66,28.23-30.97,28.23h-22.34v-.32ZM299.5,71.25c14.76,0,22.5-7.1,22.5-20.41s-7.82-20.25-23.07-20.25h-10.32v40.65h10.89Z"/><path class="uuid-db210f88-8884-4f03-94c3-d96f8a6bd33e" d="M338.04,56.41v-30.81c0-1.86-.89-3.39-2.26-4.44v-.32h13.47v.32c-1.45,1.05-2.34,2.58-2.34,4.44v30.97c0,9.19,5.4,14.6,13.87,14.6s13.87-5.4,13.87-14.6v-30.97c0-1.86-.89-3.39-2.34-4.44v-.32h13.55v.32c-1.45,1.05-2.34,2.58-2.34,4.44v30.81c0,13.95-8.87,22.74-22.74,22.74s-22.75-8.79-22.75-22.74Z"/><path class="uuid-db210f88-8884-4f03-94c3-d96f8a6bd33e" d="M405.62,77.14v.32h-13.39v-.32c1.37-1.05,2.26-2.66,2.26-4.44V25.76c0-1.86-.89-3.39-2.26-4.44v-.32h24.52c12.1,0,20.97,7.1,20.97,17.26,0,7.74-5.32,13.47-13.39,15.57,8.31,5.24,12.66,17.99,23.96,17.99,5.24,0,8.23-2.99,9.11-2.99.32,0,.89.48.89,1.61,0,3.06-4.76,8.71-12.66,8.71-16.21,0-22.1-23.07-34.44-23.07h-7.9v16.62c0,1.78.89,3.39,2.34,4.44ZM416.83,48.19c7.26,0,12.1-3.79,12.1-9.6s-4.84-9.68-12.02-9.68h-13.63v19.28h13.55Z"/><path class="uuid-db210f88-8884-4f03-94c3-d96f8a6bd33e" d="M445.21,59.96l10.16-32.34c.57-1.77.48-3.47-1.53-4.6v-.32h22.18v.32c-2.02,1.21-2.1,2.74-1.53,4.6l14.6,46.62c.73,2.34,2.26,3.79,3.55,4.6v.32h-13.63v-.32c2.02-1.21,2.1-2.58,1.53-4.52l-5.89-18.87h-19.52l-1.45,4.52c-.65,2.02-.24,3.55,1.61,4.52v.32h-13.55v-.32c1.45-.89,2.82-2.5,3.47-4.52ZM472.39,48.1l-5.48-17.5h-3.95l-5.56,17.5h15Z"/><path class="uuid-db210f88-8884-4f03-94c3-d96f8a6bd33e" d="M495.61,78.84c1.37-1.05,2.26-2.66,2.26-4.44V27.46c0-1.86-.89-3.39-2.26-4.44v-.32h13.39v.32c-1.45,1.05-2.34,2.58-2.34,4.44v.08c0,11.45,24.6,22.1,28.79,31.29v-31.38c0-1.86-.89-3.39-2.34-4.44v-.32h13.39v.32c-1.37,1.05-2.26,2.58-2.26,4.44v46.94c0,1.78.89,3.39,2.26,4.44v.32h-13.39v-.32c1.45-1.05,2.34-2.66,2.34-4.44v-.08c0-11.94-24.84-22.74-28.79-31.78v31.86c0,1.78.89,3.39,2.34,4.44v.32h-13.39v-.32Z"/><path class="uuid-db210f88-8884-4f03-94c3-d96f8a6bd33e" d="M567.3,78.84c1.45-1.05,2.34-2.66,2.34-4.44V30.6h-15.89c-1.94,0-3.55.89-4.19,2.18h-.48l1.53-10.08h46.78l1.53,10.08h-.4c-.65-1.29-2.26-2.18-4.19-2.18h-15.89v43.8c0,1.78.89,3.39,2.34,4.44v.32h-13.47v-.32Z"/></svg>