<?xml version="1.0" encoding="UTF-8"?><svg id="uuid-643c885e-1cc6-4aa6-96d2-1eab8c7ae037" xmlns="http://www.w3.org/2000/svg" viewBox="0 0 800 100"><defs><style>.uuid-98f65d26-e17e-46fa-87f9-777e14e6da12{fill:#1c2024;}</style></defs><path class="uuid-98f65d26-e17e-46fa-87f9-777e14e6da12" d="M47.27,22.09v-.32h13.87v.32c-1.53.81-3.07,2.58-3.87,4.52l-9.44,21.37,9.6,22.18,17.02-43.56c.89-2.26.48-3.47-1.21-4.52v-.32h13.87v.32c-1.37.81-2.98,2.42-3.79,4.52l-18.63,46.78c-.64,1.61-.81,3.31,1.21,4.52v.32h-16.61v-.32c1.85-1.13,1.94-2.66,1.13-4.52l-6.86-15.57-6.86,15.57c-.81,1.85-.73,3.39,1.13,4.52v.32h-16.62v-.32c1.69-1.05,2.1-2.5,1.29-4.52L3.79,26.61c-.81-2.1-2.34-3.71-3.79-4.52v-.32h13.87v.32c-1.94,1.21-1.94,2.58-1.21,4.52l17.02,43.56,9.6-22.18-9.44-21.37c-1.05-2.34-2.34-3.71-3.79-4.52v-.32h13.79v.32c-1.77,1.05-2.1,2.5-1.21,4.52l4.92,11.37,4.92-11.37c.97-2.18.48-3.47-1.21-4.52Z"/><path class="uuid-98f65d26-e17e-46fa-87f9-777e14e6da12" d="M83.71,73.31l14.6-46.62c.56-1.78.48-3.47-1.61-4.6v-.32h22.34v.32c-2.02,1.21-2.18,2.74-1.61,4.6l14.6,46.62c.73,2.18,2.18,3.79,3.55,4.6v.32h-13.63v-.32c2.02-1.13,2.26-2.58,1.61-4.6l-3.23-10.16h-24.84l-3.23,10.24c-.56,1.78-.48,3.39,1.53,4.52v.32h-13.63v-.32c1.05-.64,2.82-2.18,3.55-4.6ZM117.91,55.24l-8.07-25.57h-3.95l-7.98,25.57h20Z"/><path class="uuid-98f65d26-e17e-46fa-87f9-777e14e6da12" d="M138.54,77.91c1.37-1.05,2.26-2.66,2.26-4.44V26.53c0-1.85-.89-3.39-2.26-4.44v-.32h13.39v.32c-1.45,1.05-2.34,2.58-2.34,4.44v43.8h19.52c1.86,0,3.55-.89,4.11-2.18h.48l-1.78,10.08h-33.39v-.32Z"/><path class="uuid-98f65d26-e17e-46fa-87f9-777e14e6da12" d="M182.25,77.91c1.45-1.05,2.34-2.66,2.34-4.44V29.67h-15.89c-1.94,0-3.55.89-4.19,2.18h-.48l1.53-10.08h46.78l1.53,10.08h-.4c-.65-1.29-2.26-2.18-4.19-2.18h-15.89v43.8c0,1.77.89,3.39,2.34,4.44v.32h-13.47v-.32Z"/><path class="uuid-98f65d26-e17e-46fa-87f9-777e14e6da12" d="M252.73,52.82c-.97-1.29-2.58-2.1-4.44-2.1h-20.81v19.6h27.42c1.86,0,3.55-.89,4.2-2.18h.4l-1.53,10.08h-41.54v-.32c1.37-1.05,2.26-2.66,2.26-4.44V26.53c0-1.85-.89-3.39-2.26-4.44v-.32h39.28l1.53,10.08h-.48c-.65-1.37-2.26-2.18-4.28-2.18h-25v13.15h20.81c1.86,0,3.47-.81,4.44-2.1h.32v12.1h-.32Z"/><path class="uuid-98f65d26-e17e-46fa-87f9-777e14e6da12" d="M276.76,77.91v.32h-13.39v-.32c1.37-1.05,2.26-2.66,2.26-4.44V26.53c0-1.85-.89-3.39-2.26-4.44v-.32h24.6c12.58,0,20.89,6.69,20.89,17.02,0,8.63-5.81,14.2-14.28,16.05,8.55,4.92,11.13,20.89,19.52,20.89.81,0,1.13.24,1.13.64,0,1.05-1.94,2.82-5.57,2.82-14.28,0-14.92-22.34-27.34-22.34h-7.9v16.62c0,1.77.89,3.39,2.34,4.44ZM288.21,48.95c7.18,0,11.78-3.71,11.78-9.76s-4.44-9.52-11.86-9.52h-13.71v19.28h13.79Z"/><path class="uuid-98f65d26-e17e-46fa-87f9-777e14e6da12" d="M329.9,50.08c0-17.5,12.82-30.17,29.84-30.17,9.68,0,14.68,4.27,17.66,4.27.97,0,1.53-.4,2.02-1.05h.4v12.26h-.32c-4.6-4.68-11.94-7.66-19.12-7.66-12.58,0-21.7,8.87-21.7,22.18s9.03,22.26,22.02,22.26c4.44,0,8.23-.97,11.29-2.5v-14.6c0-1.86-.81-3.39-2.26-4.44v-.32h13.39v.32c-1.45,1.05-2.34,2.58-2.34,4.44v12.42c0,2.1.97,3.47,2.18,3.87v.32c-4.27,3.95-12.1,8.39-22.34,8.39-17.34,0-30.73-12.1-30.73-30Z"/><path class="uuid-98f65d26-e17e-46fa-87f9-777e14e6da12" d="M386.5,50.08c0-17.18,13.15-30.17,30.81-30.17s30.89,12.98,30.89,30.17-13.15,30-30.89,30-30.81-12.91-30.81-30ZM417.32,72.18c12.91,0,22.1-9.11,22.1-22.1s-9.19-22.26-22.1-22.26-22.02,9.28-22.02,22.26,9.11,22.1,22.02,22.1Z"/><path class="uuid-98f65d26-e17e-46fa-87f9-777e14e6da12" d="M466.1,77.91v.32h-13.39v-.32c1.37-1.05,2.26-2.66,2.26-4.44V26.53c0-1.85-.89-3.39-2.26-4.44v-.32h24.6c12.58,0,20.89,6.69,20.89,17.02,0,8.63-5.81,14.2-14.28,16.05,8.55,4.92,11.13,20.89,19.52,20.89.81,0,1.13.24,1.13.64,0,1.05-1.94,2.82-5.57,2.82-14.28,0-14.92-22.34-27.34-22.34h-7.9v16.62c0,1.77.89,3.39,2.34,4.44ZM477.55,48.95c7.18,0,11.78-3.71,11.78-9.76s-4.44-9.52-11.86-9.52h-13.71v19.28h13.79Z"/><path class="uuid-98f65d26-e17e-46fa-87f9-777e14e6da12" d="M505.93,77.91c1.37-1.05,2.26-2.66,2.26-4.44V26.53c0-1.85-.89-3.39-2.26-4.44v-.32h21.53c18.71,0,31.78,9.76,31.78,28.23s-12.66,28.23-30.97,28.23h-22.34v-.32ZM527.87,70.33c14.76,0,22.5-7.1,22.5-20.41s-7.82-20.25-23.07-20.25h-10.32v40.65h10.89Z"/><path class="uuid-98f65d26-e17e-46fa-87f9-777e14e6da12" d="M562.62,50.08c0-17.18,13.15-30.17,30.81-30.17s30.89,12.98,30.89,30.17-13.15,30-30.89,30-30.81-12.91-30.81-30ZM593.43,72.18c12.91,0,22.1-9.11,22.1-22.1s-9.19-22.26-22.1-22.26-22.02,9.28-22.02,22.26,9.11,22.1,22.02,22.1Z"/><path class="uuid-98f65d26-e17e-46fa-87f9-777e14e6da12" d="M628.83,77.91c1.37-1.05,2.26-2.66,2.26-4.44V26.53c0-1.85-.89-3.39-2.26-4.44v-.32h13.39v.32c-1.45,1.05-2.34,2.58-2.34,4.44v.08c0,11.45,24.6,22.1,28.79,31.29v-31.38c0-1.85-.89-3.39-2.34-4.44v-.32h13.39v.32c-1.37,1.05-2.26,2.58-2.26,4.44v46.95c0,1.77.89,3.39,2.26,4.44v.32h-13.39v-.32c1.45-1.05,2.34-2.66,2.34-4.44v-.08c0-11.94-24.84-22.75-28.79-31.78v31.86c0,1.77.89,3.39,2.34,4.44v.32h-13.39v-.32Z"/></svg>