<?xml version="1.0" encoding="UTF-8"?><svg id="uuid-f48fdd96-d472-4619-92c4-c35873f6fbdd" xmlns="http://www.w3.org/2000/svg" viewBox="0 0 800 100"><defs><style>.uuid-cd746a3c-6e54-405f-b508-733660df8188{fill:#1c2024;}</style></defs><path class="uuid-cd746a3c-6e54-405f-b508-733660df8188" d="M0,77.91c1.37-1.05,2.26-2.66,2.26-4.44V26.53c0-1.86-.89-3.39-2.26-4.44v-.32h26.94c11.05,0,17.02,5.81,17.02,13.63,0,5.32-2.9,9.6-7.18,11.61,6.86,1.69,11.77,7.18,11.77,15.16,0,9.6-7.5,16.05-20.16,16.05H0v-.32ZM25.89,43.71c5.89,0,9.28-2.58,9.28-7.18,0-4.36-2.9-6.86-8.87-6.86h-15.24v14.03h14.84ZM27.34,70.33c8.07,0,12.5-3.47,12.5-9.36s-4.52-9.36-12.26-9.36H11.05v18.71h16.29Z"/><path class="uuid-cd746a3c-6e54-405f-b508-733660df8188" d="M89.44,52.82c-.97-1.29-2.58-2.1-4.44-2.1h-20.81v19.6h27.42c1.85,0,3.55-.89,4.19-2.18h.4l-1.53,10.08h-41.54v-.32c1.37-1.05,2.26-2.66,2.26-4.44V26.53c0-1.86-.89-3.39-2.26-4.44v-.32h39.28l1.53,10.08h-.48c-.64-1.37-2.26-2.18-4.27-2.18h-25v13.15h20.81c1.85,0,3.47-.81,4.44-2.1h.32v12.1h-.32Z"/><path class="uuid-cd746a3c-6e54-405f-b508-733660df8188" d="M113.46,77.91v.32h-13.39v-.32c1.37-1.05,2.26-2.66,2.26-4.44V26.53c0-1.86-.89-3.39-2.26-4.44v-.32h24.6c12.58,0,20.89,6.69,20.89,17.02,0,8.63-5.81,14.2-14.28,16.05,8.55,4.92,11.13,20.89,19.52,20.89.81,0,1.13.24,1.13.65,0,1.05-1.94,2.82-5.57,2.82-14.28,0-14.92-22.34-27.34-22.34h-7.9v16.62c0,1.78.89,3.39,2.34,4.44ZM124.92,48.95c7.18,0,11.77-3.71,11.77-9.76s-4.44-9.52-11.86-9.52h-13.71v19.28h13.79Z"/><path class="uuid-cd746a3c-6e54-405f-b508-733660df8188" d="M153.29,77.91c1.37-1.05,2.26-2.66,2.26-4.44V26.53c0-1.86-.89-3.39-2.26-4.44v-.32h13.39v.32c-1.45,1.05-2.34,2.58-2.34,4.44v.08c0,11.45,24.6,22.1,28.8,31.29v-31.38c0-1.86-.89-3.39-2.34-4.44v-.32h13.39v.32c-1.37,1.05-2.26,2.58-2.26,4.44v46.94c0,1.78.88,3.39,2.26,4.44v.32h-13.39v-.32c1.45-1.05,2.34-2.66,2.34-4.44v-.08c0-11.94-24.84-22.74-28.8-31.78v31.86c0,1.78.89,3.39,2.34,4.44v.32h-13.39v-.32Z"/><path class="uuid-cd746a3c-6e54-405f-b508-733660df8188" d="M210.71,73.31l14.6-46.62c.57-1.77.48-3.47-1.61-4.6v-.32h22.34v.32c-2.02,1.21-2.18,2.74-1.61,4.6l14.6,46.62c.73,2.18,2.18,3.79,3.55,4.6v.32h-13.63v-.32c2.02-1.13,2.26-2.58,1.61-4.6l-3.23-10.16h-24.84l-3.23,10.24c-.57,1.78-.48,3.39,1.53,4.52v.32h-13.63v-.32c1.05-.65,2.82-2.18,3.55-4.6ZM244.91,55.24l-8.07-25.57h-3.95l-7.99,25.57h20Z"/><path class="uuid-cd746a3c-6e54-405f-b508-733660df8188" d="M278.93,77.91v.32h-13.39v-.32c1.37-1.05,2.26-2.66,2.26-4.44V26.53c0-1.86-.89-3.39-2.26-4.44v-.32h24.6c12.58,0,20.89,6.69,20.89,17.02,0,8.63-5.81,14.2-14.28,16.05,8.55,4.92,11.13,20.89,19.52,20.89.81,0,1.13.24,1.13.65,0,1.05-1.94,2.82-5.57,2.82-14.28,0-14.92-22.34-27.34-22.34h-7.9v16.62c0,1.78.89,3.39,2.34,4.44ZM290.39,48.95c7.18,0,11.77-3.71,11.77-9.76s-4.44-9.52-11.86-9.52h-13.71v19.28h13.79Z"/><path class="uuid-cd746a3c-6e54-405f-b508-733660df8188" d="M318.77,77.91c1.37-1.05,2.26-2.66,2.26-4.44V26.53c0-1.86-.89-3.39-2.26-4.44v-.32h21.54c18.71,0,31.78,9.76,31.78,28.23s-12.66,28.23-30.97,28.23h-22.34v-.32ZM340.71,70.33c14.76,0,22.5-7.1,22.5-20.41s-7.83-20.25-23.07-20.25h-10.32v40.65h10.89Z"/><path class="uuid-cd746a3c-6e54-405f-b508-733660df8188" d="M393.11,77.91c1.37-1.05,2.26-2.66,2.26-4.44V26.53c0-1.86-.89-3.39-2.26-4.44v-.32h13.95v.32c-1.61.89-2.5,2.66-1.05,4.28l15.65,17.1,15.73-17.1c1.45-1.61.57-3.39-1.05-4.28v-.32h13.95v.32c-1.45,1.05-2.34,2.58-2.34,4.44v46.94c0,1.78.88,3.39,2.34,4.44v.32h-13.47v-.32c1.45-1.05,2.34-2.66,2.34-4.44v-36.22l-17.34,18.96h-.32l-17.34-19.04v36.3c0,1.78.89,3.39,2.34,4.44v.32h-13.39v-.32Z"/><path class="uuid-cd746a3c-6e54-405f-b508-733660df8188" d="M456.82,73.31l14.6-46.62c.57-1.77.48-3.47-1.61-4.6v-.32h22.34v.32c-2.02,1.21-2.18,2.74-1.61,4.6l14.6,46.62c.73,2.18,2.18,3.79,3.55,4.6v.32h-13.63v-.32c2.02-1.13,2.26-2.58,1.61-4.6l-3.23-10.16h-24.84l-3.23,10.24c-.57,1.78-.48,3.39,1.53,4.52v.32h-13.63v-.32c1.05-.65,2.82-2.18,3.55-4.6ZM491.02,55.24l-8.07-25.57h-3.95l-7.99,25.57h20Z"/><path class="uuid-cd746a3c-6e54-405f-b508-733660df8188" d="M521.33,77.91c1.45-1.05,2.34-2.66,2.34-4.44v-14.76l-18.79-32.18c-1.13-1.94-2.66-3.71-4.11-4.44v-.32h14.36v.32c-1.85,1.13-1.93,2.58-.88,4.44l13.79,23.55,13.79-23.55c1.13-1.94.97-3.31-.81-4.44v-.32h14.28v.32c-1.45.73-2.99,2.5-4.03,4.44l-18.79,32.18v14.76c0,1.78.88,3.39,2.34,4.44v.32h-13.47v-.32Z"/><path class="uuid-cd746a3c-6e54-405f-b508-733660df8188" d="M558.02,77.91c1.37-1.05,2.26-2.66,2.26-4.44V26.53c0-1.86-.89-3.39-2.26-4.44v-.32h26.94c11.05,0,17.02,5.81,17.02,13.63,0,5.32-2.9,9.6-7.18,11.61,6.86,1.69,11.77,7.18,11.77,15.16,0,9.6-7.5,16.05-20.16,16.05h-28.39v-.32ZM583.91,43.71c5.89,0,9.28-2.58,9.28-7.18,0-4.36-2.9-6.86-8.87-6.86h-15.24v14.03h14.84ZM585.37,70.33c8.07,0,12.5-3.47,12.5-9.36s-4.52-9.36-12.26-9.36h-16.54v18.71h16.29Z"/><path class="uuid-cd746a3c-6e54-405f-b508-733660df8188" d="M647.46,52.82c-.97-1.29-2.58-2.1-4.44-2.1h-20.81v19.6h27.42c1.85,0,3.55-.89,4.19-2.18h.4l-1.53,10.08h-41.54v-.32c1.37-1.05,2.26-2.66,2.26-4.44V26.53c0-1.86-.89-3.39-2.26-4.44v-.32h39.28l1.53,10.08h-.48c-.64-1.37-2.26-2.18-4.27-2.18h-25v13.15h20.81c1.85,0,3.47-.81,4.44-2.1h.32v12.1h-.32Z"/><path class="uuid-cd746a3c-6e54-405f-b508-733660df8188" d="M655.67,50.16c0-17.58,12.74-30.25,29.52-30.25,9.76,0,14.84,4.27,17.82,4.27.89,0,1.53-.4,1.94-.97h.48v12.18h-.4c-4.11-4.27-11.45-7.58-18.96-7.58-12.18,0-21.62,8.55-21.62,22.18s9.11,22.18,22.42,22.18,19.92-8.23,21.54-8.23c.32,0,.48.32.48.97,0,4.44-7.58,15.16-23.39,15.16-16.78,0-29.84-12.26-29.84-29.92Z"/><path class="uuid-cd746a3c-6e54-405f-b508-733660df8188" d="M725.43,77.91v.32h-13.39v-.32c1.37-1.05,2.26-2.66,2.26-4.44V26.53c0-1.86-.89-3.39-2.26-4.44v-.32h13.39v.32c-1.45,1.05-2.34,2.58-2.34,4.44v21.29l21.45-21.29c1.86-1.86,2.26-3.31.81-4.44v-.32h16.13v.32c-1.13.4-3.79,2.58-4.84,3.63l-16.45,16.21,21.05,31.54c1.21,1.86,2.5,3.63,3.95,4.44v.32h-14.92v-.32c1.69-1.21,2.02-2.58.81-4.44l-16.94-25.57-11.05,10.81v14.76c0,1.78.89,3.39,2.34,4.44Z"/></svg>