<?xml version="1.0" encoding="UTF-8"?><svg id="uuid-fd56639d-c87b-4b70-b737-e898f54e629c" xmlns="http://www.w3.org/2000/svg" viewBox="0 0 800 100"><defs><style>.uuid-24388199-f364-4ef8-b88a-7381e2126e08{fill:#1c2024;}</style></defs><path class="uuid-24388199-f364-4ef8-b88a-7381e2126e08" d="M3.87,84.97c-2.5,0-3.87-.89-3.87-1.37,0-1.05,8.23-1.45,8.23-14.92V21.65c0-1.86-.81-3.39-2.26-4.44v-.32h13.39v.32c-1.45,1.05-2.26,2.58-2.26,4.44v47.02c0,10.32-6.37,16.29-13.23,16.29"/><path class="uuid-24388199-f364-4ef8-b88a-7381e2126e08" d="M24.92,68.43l14.6-46.62c.56-1.77.48-3.47-1.61-4.6v-.32h22.34v.32c-2.02,1.21-2.18,2.74-1.61,4.6l14.6,46.62c.73,2.18,2.18,3.79,3.55,4.6v.32h-13.63v-.32c2.02-1.13,2.26-2.58,1.61-4.6l-3.23-10.16h-24.84l-3.23,10.24c-.56,1.78-.48,3.39,1.53,4.52v.32h-13.63v-.32c1.05-.65,2.82-2.18,3.55-4.6ZM59.12,50.36l-8.07-25.57h-3.95l-7.98,25.57h20Z"/><path class="uuid-24388199-f364-4ef8-b88a-7381e2126e08" d="M79.75,73.03c1.37-1.05,2.26-2.66,2.26-4.44V21.65c0-1.86-.89-3.39-2.26-4.44v-.32h13.39v.32c-1.45,1.05-2.34,2.58-2.34,4.44v.08c0,11.45,24.6,22.1,28.79,31.29v-31.38c0-1.86-.89-3.39-2.34-4.44v-.32h13.39v.32c-1.37,1.05-2.26,2.58-2.26,4.44v46.94c0,1.78.89,3.39,2.26,4.44v.32h-13.39v-.32c1.45-1.05,2.34-2.66,2.34-4.44v-.08c0-11.94-24.84-22.74-28.79-31.78v31.86c0,1.78.89,3.39,2.34,4.44v.32h-13.39v-.32Z"/><path class="uuid-24388199-f364-4ef8-b88a-7381e2126e08" d="M173.39,47.94c-.97-1.29-2.58-2.1-4.44-2.1h-20.81v19.6h27.42c1.86,0,3.55-.89,4.2-2.18h.4l-1.53,10.08h-41.54v-.32c1.37-1.05,2.26-2.66,2.26-4.44V21.65c0-1.86-.89-3.39-2.26-4.44v-.32h39.28l1.53,10.08h-.48c-.65-1.37-2.26-2.18-4.28-2.18h-25v13.15h20.81c1.86,0,3.47-.81,4.44-2.1h.32v12.1h-.32Z"/><path class="uuid-24388199-f364-4ef8-b88a-7381e2126e08" d="M209.91,73.03v.32h-9.68v-.32c1.13-.73,1.94-2.1,1.94-3.47V20.68c0-1.45-.81-2.74-1.94-3.47v-.32h9.68v.32c-1.13.73-1.94,2.02-1.94,3.47v21.38l17.1-21.78c1.13-1.37,1.13-2.34-.08-3.07v-.32h10.4v.32c-.97.4-2.42,1.78-3.23,2.82l-14.52,18.07,18.47,31.7c.65,1.05,1.69,2.5,2.99,3.23v.32h-10.24v-.32c1.37-.81,1.45-1.86.64-3.23l-15.65-26.94-5.89,7.42v19.28c0,1.37.81,2.74,1.94,3.47Z"/><path class="uuid-24388199-f364-4ef8-b88a-7381e2126e08" d="M250.87,73.03v.32h-9.68v-.32c1.13-.73,1.94-2.1,1.94-3.47V20.68c0-1.45-.81-2.74-1.94-3.47v-.32h15.08c11.21,0,18.63,6.21,18.63,15.65,0,7.9-5.08,13.23-13.23,14.84,7.34,6.13,11.29,22.42,23.15,22.42,4.92,0,7.66-2.82,8.63-2.82.24,0,.56.32.56.97,0,2.26-4.35,6.69-11.13,6.69-16.7,0-20-26.37-29.92-26.37h-4.03v21.29c0,1.37.81,2.74,1.94,3.47ZM256.44,42.86c7.99,0,12.58-3.87,12.58-10.24s-4.52-10.32-11.94-10.32h-8.15v20.57h7.5Z"/><path class="uuid-24388199-f364-4ef8-b88a-7381e2126e08" d="M279.66,42.38c0-10.16,7.99-18.39,17.91-18.39s17.75,8.23,17.75,18.39-7.9,18.47-17.75,18.47-17.91-8.23-17.91-18.47ZM297.56,55.36c6.86,0,12.26-5.73,12.26-12.99s-5.4-12.91-12.26-12.91-12.42,5.65-12.42,12.91,5.4,12.99,12.42,12.99Z"/><path class="uuid-24388199-f364-4ef8-b88a-7381e2126e08" d="M320.22,73.03c1.13-.73,1.94-2.1,1.94-3.47V20.68c0-1.45-.81-2.74-1.94-3.47v-.32h10.16v.32c-1.53.89-1.85,2.42-.89,3.79l11.29,15.16,11.37-15.16c.97-1.37.65-2.98-.97-3.79v-.32h10.24v.32c-1.13.73-1.94,2.02-1.94,3.47v48.88c0,1.37.81,2.74,1.94,3.47v.32h-9.68v-.32c1.13-.73,1.85-2.1,1.85-3.47V28.58l-12.66,16.94h-.32l-12.66-16.94v40.97c0,1.37.81,2.74,1.94,3.47v.32h-9.68v-.32Z"/><path class="uuid-24388199-f364-4ef8-b88a-7381e2126e08" d="M382.63,60.12c0-6.29,4.76-11.05,10.49-11.05,4.44,0,7.1,2.74,7.1,4.6,0,.4-.16.56-.4.56-.48,0-1.37-.56-3.23-.56-3.63,0-5.73,2.5-5.73,5.56,0,5,5.73,8.07,12.82,8.07,7.82,0,12.91-3.79,12.91-9.19,0-13.87-31.86-11.61-31.86-29.04,0-8.55,7.66-14.03,17.34-14.03,8.95,0,14.2,4.6,16.78,4.6.73,0,1.37-.4,1.78-.97h.4v12.1h-.32c-3.87-4.03-11.13-7.9-17.99-7.9-5.48,0-9.19,2.34-9.19,5.89,0,10.24,31.86,9.76,31.86,28.88,0,9.92-8.63,17.58-21.86,17.58-12.42,0-20.89-6.61-20.89-15.08Z"/><path class="uuid-24388199-f364-4ef8-b88a-7381e2126e08" d="M429.16,68.43l14.6-46.62c.56-1.77.48-3.47-1.61-4.6v-.32h22.34v.32c-2.02,1.21-2.18,2.74-1.61,4.6l14.6,46.62c.73,2.18,2.18,3.79,3.55,4.6v.32h-13.63v-.32c2.02-1.13,2.26-2.58,1.61-4.6l-3.23-10.16h-24.84l-3.23,10.24c-.56,1.78-.48,3.39,1.53,4.52v.32h-13.63v-.32c1.05-.65,2.82-2.18,3.55-4.6ZM463.36,50.36l-8.07-25.57h-3.95l-7.98,25.57h20Z"/><path class="uuid-24388199-f364-4ef8-b88a-7381e2126e08" d="M491.02,73.03c1.45-1.05,2.34-2.66,2.34-4.44V24.79h-15.89c-1.94,0-3.55.89-4.19,2.18h-.48l1.53-10.08h46.78l1.53,10.08h-.4c-.65-1.29-2.26-2.18-4.19-2.18h-15.89v43.8c0,1.78.89,3.39,2.34,4.44v.32h-13.47v-.32Z"/><path class="uuid-24388199-f364-4ef8-b88a-7381e2126e08" d="M560.94,73.03c1.45-1.05,2.34-2.66,2.34-4.44v-18.79h-27.02v18.79c0,1.78.89,3.39,2.34,4.44v.32h-13.39v-.32c1.37-1.05,2.26-2.66,2.26-4.44V21.65c0-1.86-.89-3.39-2.26-4.44v-.32h13.39v.32c-1.45,1.05-2.34,2.58-2.34,4.44v20.25h27.02v-20.25c0-1.86-.89-3.39-2.34-4.44v-.32h13.47v.32c-1.45,1.05-2.34,2.58-2.34,4.44v46.94c0,1.78.89,3.39,2.34,4.44v.32h-13.47v-.32Z"/><path class="uuid-24388199-f364-4ef8-b88a-7381e2126e08" d="M617.06,47.94c-.97-1.29-2.58-2.1-4.44-2.1h-20.81v19.6h27.42c1.86,0,3.55-.89,4.2-2.18h.4l-1.53,10.08h-41.54v-.32c1.37-1.05,2.26-2.66,2.26-4.44V21.65c0-1.86-.89-3.39-2.26-4.44v-.32h39.28l1.53,10.08h-.48c-.65-1.37-2.26-2.18-4.28-2.18h-25v13.15h20.81c1.86,0,3.47-.81,4.44-2.1h.32v12.1h-.32Z"/><path class="uuid-24388199-f364-4ef8-b88a-7381e2126e08" d="M641.09,73.03v.32h-13.39v-.32c1.37-1.05,2.26-2.66,2.26-4.44V21.65c0-1.86-.89-3.39-2.26-4.44v-.32h24.6c12.58,0,20.89,6.69,20.89,17.02,0,8.63-5.81,14.2-14.28,16.05,8.55,4.92,11.13,20.89,19.52,20.89.81,0,1.13.24,1.13.65,0,1.05-1.94,2.82-5.57,2.82-14.28,0-14.92-22.34-27.34-22.34h-7.9v16.62c0,1.78.89,3.39,2.34,4.44ZM652.54,44.07c7.18,0,11.78-3.71,11.78-9.76s-4.44-9.52-11.86-9.52h-13.71v19.28h13.79Z"/></svg>