<?xml version="1.0" encoding="UTF-8"?><svg id="uuid-4fda2019-d096-436b-a015-5195772dcc38" xmlns="http://www.w3.org/2000/svg" viewBox="0 0 800 100"><defs><style>.uuid-db6d9d8e-80ee-44d8-add9-c88dd1f50711{fill:#1c2024;}</style></defs><path class="uuid-db6d9d8e-80ee-44d8-add9-c88dd1f50711" d="M3.55,73.31l14.6-46.62c.57-1.78.48-3.47-1.61-4.6v-.32h22.34v.32c-2.02,1.21-2.18,2.74-1.61,4.6l14.6,46.62c.73,2.18,2.18,3.79,3.55,4.6v.32h-13.63v-.32c2.02-1.13,2.26-2.58,1.61-4.6l-3.23-10.16H15.33l-3.23,10.24c-.57,1.78-.48,3.39,1.53,4.52v.32H0v-.32c1.05-.64,2.82-2.18,3.55-4.6ZM37.75,55.24l-8.07-25.57h-3.95l-7.99,25.57h20Z"/><path class="uuid-db6d9d8e-80ee-44d8-add9-c88dd1f50711" d="M58.39,77.91c1.37-1.05,2.26-2.66,2.26-4.44V26.53c0-1.85-.89-3.39-2.26-4.44v-.32h13.39v.32c-1.45,1.05-2.34,2.58-2.34,4.44v.08c0,11.45,24.6,22.1,28.8,31.29v-31.38c0-1.85-.89-3.39-2.34-4.44v-.32h13.39v.32c-1.37,1.05-2.26,2.58-2.26,4.44v46.95c0,1.77.88,3.39,2.26,4.44v.32h-13.39v-.32c1.45-1.05,2.34-2.66,2.34-4.44v-.08c0-11.94-24.84-22.75-28.8-31.78v31.86c0,1.77.89,3.39,2.34,4.44v.32h-13.39v-.32Z"/><path class="uuid-db6d9d8e-80ee-44d8-add9-c88dd1f50711" d="M135.72,58.47v-31.94c0-1.85-.89-3.39-2.34-4.44v-.32h13.47v.32c-1.45,1.05-2.34,2.58-2.34,4.44v46.95c0,1.77.89,3.39,2.34,4.44v.32h-13.47v-.32c1.45-1.05,2.34-2.66,2.34-4.44v-.08c0-12.5-27.1-23.71-29.2-33.79l-3.23-5.97,3.71-7.02c0,11.45,24.2,21.94,28.71,31.86Z"/><path class="uuid-db6d9d8e-80ee-44d8-add9-c88dd1f50711" d="M153.3,73.31l14.6-46.62c.57-1.78.48-3.47-1.61-4.6v-.32h22.34v.32c-2.02,1.21-2.18,2.74-1.61,4.6l14.6,46.62c.73,2.18,2.18,3.79,3.55,4.6v.32h-13.63v-.32c2.02-1.13,2.26-2.58,1.61-4.6l-3.23-10.16h-24.84l-3.23,10.24c-.57,1.78-.48,3.39,1.53,4.52v.32h-13.63v-.32c1.05-.64,2.82-2.18,3.55-4.6ZM187.5,55.24l-8.07-25.57h-3.95l-7.99,25.57h20Z"/><path class="uuid-db6d9d8e-80ee-44d8-add9-c88dd1f50711" d="M258.62,77.91c1.45-1.05,2.34-2.66,2.34-4.44v-18.79h-27.02v18.79c0,1.77.89,3.39,2.34,4.44v.32h-13.39v-.32c1.37-1.05,2.26-2.66,2.26-4.44V26.53c0-1.85-.89-3.39-2.26-4.44v-.32h13.39v.32c-1.45,1.05-2.34,2.58-2.34,4.44v20.25h27.02v-20.25c0-1.85-.89-3.39-2.34-4.44v-.32h13.47v.32c-1.45,1.05-2.34,2.58-2.34,4.44v46.95c0,1.77.89,3.39,2.34,4.44v.32h-13.47v-.32Z"/><path class="uuid-db6d9d8e-80ee-44d8-add9-c88dd1f50711" d="M278.45,77.91c1.37-1.05,2.26-2.66,2.26-4.44V26.53c0-1.85-.89-3.39-2.26-4.44v-.32h36.13l1.61,10.08h-.48c-.73-1.37-2.34-2.18-4.27-2.18h-21.94v13.15h17.66c1.86,0,3.47-.81,4.44-2.1h.32v12.1h-.32c-.97-1.29-2.58-2.1-4.44-2.1h-17.66v19.6h41.05c1.86,0,3.47-.89,4.12-2.18h.48l-1.53,10.08h-55.17v-.32Z"/><path class="uuid-db6d9d8e-80ee-44d8-add9-c88dd1f50711" d="M319.9,59.04l10.16-32.34c.57-1.78.48-3.47-1.53-4.6v-.32h22.18v.32c-2.02,1.21-2.1,2.74-1.53,4.6l14.6,46.62c.73,2.34,2.26,3.79,3.55,4.6v.32h-13.63v-.32c2.02-1.21,2.1-2.58,1.53-4.52l-5.89-18.87h-19.52l-1.45,4.52c-.64,2.02-.24,3.55,1.61,4.51v.32h-13.55v-.32c1.45-.89,2.82-2.5,3.47-4.51ZM347.08,47.18l-5.48-17.5h-3.95l-5.57,17.5h15Z"/><path class="uuid-db6d9d8e-80ee-44d8-add9-c88dd1f50711" d="M370.3,77.91c1.37-1.05,2.26-2.66,2.26-4.44V26.53c0-1.85-.89-3.39-2.26-4.44v-.32h21.54c18.71,0,31.78,9.76,31.78,28.23s-12.66,28.23-30.97,28.23h-22.34v-.32ZM392.24,70.33c14.76,0,22.5-7.1,22.5-20.41s-7.83-20.25-23.07-20.25h-10.32v40.65h10.89Z"/></svg>