<?xml version="1.0" encoding="UTF-8"?><svg id="uuid-693a87d8-95c9-4844-bb20-ac8215c28f10" xmlns="http://www.w3.org/2000/svg" viewBox="0 0 800 100"><defs><style>.uuid-36b5b085-179f-40d3-9f88-e4e2922069a3{fill:#1c2024;}</style></defs><path class="uuid-36b5b085-179f-40d3-9f88-e4e2922069a3" d="M36.3,52.82c-.97-1.29-2.58-2.1-4.44-2.1H11.05v22.75c0,1.77.89,3.39,2.34,4.44v.32H0v-.32c1.37-1.05,2.26-2.66,2.26-4.44V26.53c0-1.85-.89-3.39-2.26-4.44v-.32h39.28l1.53,10.08h-.48c-.64-1.37-2.26-2.18-4.27-2.18H11.05v13.15h20.81c1.85,0,3.47-.81,4.44-2.1h.32v12.1h-.32Z"/><path class="uuid-36b5b085-179f-40d3-9f88-e4e2922069a3" d="M58.71,77.91v.32h-13.39v-.32c1.37-1.05,2.26-2.66,2.26-4.44V26.53c0-1.85-.89-3.39-2.26-4.44v-.32h24.52c12.1,0,20.97,7.1,20.97,17.26,0,7.74-5.32,13.47-13.39,15.57,8.31,5.24,12.66,17.99,23.95,17.99,5.24,0,8.23-2.99,9.12-2.99.32,0,.88.48.88,1.61,0,3.06-4.76,8.71-12.66,8.71-16.21,0-22.1-23.07-34.44-23.07h-7.9v16.62c0,1.77.89,3.39,2.34,4.44ZM69.92,48.95c7.26,0,12.1-3.79,12.1-9.6s-4.84-9.68-12.02-9.68h-13.63v19.28h13.55Z"/><path class="uuid-36b5b085-179f-40d3-9f88-e4e2922069a3" d="M98.3,59.04l10.16-32.34c.57-1.78.48-3.47-1.53-4.6v-.32h22.18v.32c-2.02,1.21-2.1,2.74-1.53,4.6l14.6,46.62c.73,2.34,2.26,3.79,3.55,4.6v.32h-13.63v-.32c2.02-1.21,2.1-2.58,1.53-4.52l-5.89-18.87h-19.52l-1.45,4.52c-.64,2.02-.24,3.55,1.61,4.51v.32h-13.55v-.32c1.45-.89,2.82-2.5,3.47-4.51ZM125.48,47.18l-5.48-17.5h-3.95l-5.57,17.5h15Z"/><path class="uuid-36b5b085-179f-40d3-9f88-e4e2922069a3" d="M148.7,77.91c1.37-1.05,2.26-2.66,2.26-4.44V26.53c0-1.85-.89-3.39-2.26-4.44v-.32h13.39v.32c-1.45,1.05-2.34,2.58-2.34,4.44v.08c0,11.45,24.6,22.1,28.8,31.29v-31.38c0-1.85-.89-3.39-2.34-4.44v-.32h13.39v.32c-1.37,1.05-2.26,2.58-2.26,4.44v46.95c0,1.77.88,3.39,2.26,4.44v.32h-13.39v-.32c1.45-1.05,2.34-2.66,2.34-4.44v-.08c0-11.94-24.84-22.75-28.8-31.78v31.86c0,1.77.89,3.39,2.34,4.44v.32h-13.39v-.32Z"/><path class="uuid-36b5b085-179f-40d3-9f88-e4e2922069a3" d="M219.42,77.91v.32h-13.39v-.32c1.37-1.05,2.26-2.66,2.26-4.44V26.53c0-1.85-.89-3.39-2.26-4.44v-.32h13.39v.32c-1.45,1.05-2.34,2.58-2.34,4.44v21.3l21.45-21.3c1.86-1.85,2.26-3.3.81-4.44v-.32h16.13v.32c-1.13.4-3.79,2.58-4.84,3.63l-16.45,16.21,21.05,31.54c1.21,1.85,2.5,3.63,3.95,4.44v.32h-14.92v-.32c1.69-1.21,2.02-2.58.81-4.44l-16.94-25.57-11.05,10.81v14.76c0,1.77.89,3.39,2.34,4.44Z"/><path class="uuid-36b5b085-179f-40d3-9f88-e4e2922069a3" d="M275.55,77.91c1.37-1.05,2.26-2.66,2.26-4.44V26.53c0-1.85-.89-3.39-2.26-4.44v-.32h13.39v.32c-1.45,1.05-2.34,2.58-2.34,4.44v.08c0,11.45,24.6,22.1,28.8,31.29v-31.38c0-1.85-.89-3.39-2.34-4.44v-.32h13.39v.32c-1.37,1.05-2.26,2.58-2.26,4.44v46.95c0,1.77.88,3.39,2.26,4.44v.32h-13.39v-.32c1.45-1.05,2.34-2.66,2.34-4.44v-.08c0-11.94-24.84-22.75-28.8-31.78v31.86c0,1.77.89,3.39,2.34,4.44v.32h-13.39v-.32Z"/><path class="uuid-36b5b085-179f-40d3-9f88-e4e2922069a3" d="M330.95,50.08c0-17.18,13.15-30.17,30.81-30.17s30.89,12.98,30.89,30.17-13.15,30-30.89,30-30.81-12.91-30.81-30ZM361.76,72.18c12.91,0,22.1-9.11,22.1-22.1s-9.2-22.26-22.1-22.26-22.02,9.28-22.02,22.26,9.11,22.1,22.02,22.1Z"/><path class="uuid-36b5b085-179f-40d3-9f88-e4e2922069a3" d="M410.54,77.91v.32h-13.39v-.32c1.37-1.05,2.26-2.66,2.26-4.44V26.53c0-1.85-.89-3.39-2.26-4.44v-.32h24.6c12.58,0,20.89,6.69,20.89,17.02,0,8.63-5.81,14.2-14.28,16.05,8.55,4.92,11.13,20.89,19.52,20.89.81,0,1.13.24,1.13.64,0,1.05-1.94,2.82-5.57,2.82-14.28,0-14.92-22.34-27.34-22.34h-7.9v16.62c0,1.77.89,3.39,2.34,4.44ZM421.99,48.95c7.18,0,11.77-3.71,11.77-9.76s-4.44-9.52-11.86-9.52h-13.71v19.28h13.79Z"/><path class="uuid-36b5b085-179f-40d3-9f88-e4e2922069a3" d="M463.76,77.91v.32h-13.39v-.32c1.37-1.05,2.26-2.66,2.26-4.44V26.53c0-1.85-.89-3.39-2.26-4.44v-.32h24.52c12.1,0,20.97,7.1,20.97,17.26,0,7.74-5.32,13.47-13.39,15.57,8.31,5.24,12.66,17.99,23.95,17.99,5.24,0,8.23-2.99,9.11-2.99.33,0,.89.48.89,1.61,0,3.06-4.76,8.71-12.66,8.71-16.21,0-22.1-23.07-34.44-23.07h-7.9v16.62c0,1.77.89,3.39,2.34,4.44ZM474.97,48.95c7.26,0,12.1-3.79,12.1-9.6s-4.84-9.68-12.02-9.68h-13.63v19.28h13.55Z"/><path class="uuid-36b5b085-179f-40d3-9f88-e4e2922069a3" d="M502.14,61.53c1.37-1.05,2.26-2.66,2.26-4.44v-30.57c0-1.85-.89-3.47-2.26-4.44v-.32h13.39v.32c-1.45.97-2.34,2.58-2.34,4.44v30.57c0,1.78.89,3.39,2.34,4.44v.32h-13.39v-.32Z"/><path class="uuid-36b5b085-179f-40d3-9f88-e4e2922069a3" d="M520.53,65c0-6.29,4.76-11.05,10.49-11.05,4.44,0,7.1,2.74,7.1,4.6,0,.4-.16.57-.4.57-.48,0-1.37-.57-3.23-.57-3.63,0-5.73,2.5-5.73,5.57,0,5,5.73,8.07,12.82,8.07,7.83,0,12.91-3.79,12.91-9.19,0-13.87-31.86-11.62-31.86-29.04,0-8.55,7.66-14.03,17.34-14.03,8.95,0,14.19,4.6,16.78,4.6.73,0,1.37-.4,1.78-.97h.4v12.1h-.33c-3.87-4.03-11.13-7.9-17.99-7.9-5.48,0-9.2,2.34-9.2,5.89,0,10.25,31.86,9.76,31.86,28.87,0,9.92-8.63,17.58-21.86,17.58-12.42,0-20.89-6.61-20.89-15.08Z"/></svg>