<?xml version="1.0" encoding="UTF-8"?><svg id="uuid-1b4bc538-54d3-4ee1-bd90-db776b93a0ae" xmlns="http://www.w3.org/2000/svg" viewBox="0 0 800 100"><defs><style>.uuid-0e54bec3-7073-4d90-8cf9-bbb16cb11b45{fill:#1c2024;}</style></defs><path class="uuid-0e54bec3-7073-4d90-8cf9-bbb16cb11b45" d="M0,73.03c1.37-1.05,2.26-2.66,2.26-4.44V21.65c0-1.85-.89-3.39-2.26-4.44v-.32h13.39v.32c-1.45,1.05-2.34,2.58-2.34,4.44v46.94c0,1.78.89,3.39,2.34,4.44v.32H0v-.32Z"/><path class="uuid-0e54bec3-7073-4d90-8cf9-bbb16cb11b45" d="M19.84,73.03c1.37-1.05,2.26-2.66,2.26-4.44V21.65c0-1.85-.89-3.39-2.26-4.44v-.32h21.53c18.71,0,31.78,9.76,31.78,28.23s-12.66,28.23-30.97,28.23h-22.34v-.32ZM41.77,65.45c14.76,0,22.5-7.1,22.5-20.41s-7.82-20.25-23.07-20.25h-10.32v40.65h10.89Z"/><path class="uuid-0e54bec3-7073-4d90-8cf9-bbb16cb11b45" d="M76.04,68.43l14.6-46.62c.56-1.77.48-3.47-1.61-4.6v-.32h22.34v.32c-2.02,1.21-2.18,2.74-1.61,4.6l14.6,46.62c.73,2.18,2.18,3.79,3.55,4.6v.32h-13.63v-.32c2.02-1.13,2.26-2.58,1.61-4.6l-3.23-10.16h-24.84l-3.23,10.24c-.56,1.78-.48,3.39,1.53,4.52v.32h-13.63v-.32c1.05-.65,2.82-2.18,3.55-4.6ZM110.24,50.36l-8.07-25.57h-3.95l-7.98,25.57h20Z"/><path class="uuid-0e54bec3-7073-4d90-8cf9-bbb16cb11b45" d="M145.72,73.03c1.13-.73,1.94-2.1,1.94-3.47V20.68c0-1.45-.81-2.74-1.94-3.47v-.32h9.68v.32c-1.13.73-1.94,2.02-1.94,3.47v47.27h18.55c1.61,0,2.9-.65,3.39-1.78h.4l-1.13,7.18h-28.96v-.32Z"/><path class="uuid-0e54bec3-7073-4d90-8cf9-bbb16cb11b45" d="M173.62,45.2c0-16.54,12.18-29.52,28.96-29.52s29.12,12.99,29.12,29.52-12.18,29.44-29.12,29.44-28.96-12.99-28.96-29.44ZM202.57,69.24c13.47,0,23.23-10,23.23-24.04s-9.68-24.12-23.23-24.12-23.07,10.24-23.07,24.12,9.68,24.04,23.07,24.04Z"/><path class="uuid-0e54bec3-7073-4d90-8cf9-bbb16cb11b45" d="M238.53,55.44V20.68c0-1.45-.81-2.74-1.94-3.47v-.32h9.76v.32c-1.13.73-1.94,2.02-1.94,3.47v34.68c0,8.87,3.71,13.79,10.81,13.79s10.73-4.92,10.73-13.79V20.68c0-1.45-.81-2.74-1.94-3.47v-.32h9.84v.32c-1.13.73-1.94,2.02-1.94,3.47v34.76c0,11.61-5.32,19.2-16.7,19.2s-16.7-7.58-16.7-19.2Z"/><path class="uuid-0e54bec3-7073-4d90-8cf9-bbb16cb11b45" d="M280.46,73.03c1.13-.73,1.94-2.1,1.94-3.47V20.68c0-1.45-.81-2.74-1.94-3.47v-.32h9.68v.32c-1.13.73-1.94,2.02-1.94,3.47v48.88c0,1.37.81,2.74,1.94,3.47v.32h-9.68v-.32Z"/><path class="uuid-0e54bec3-7073-4d90-8cf9-bbb16cb11b45" d="M295.3,61.41c0-6.13,4.68-9.92,8.79-9.92,3.07,0,5.08,1.77,5.08,2.82,0,.32-.16.48-.4.48-.48,0-1.21-.48-2.58-.48-2.98,0-5.32,2.82-5.32,6.53,0,5.24,4.35,8.39,9.03,8.39s9.19-3.23,9.19-9.36c0-14.28-22.1-18.31-22.1-32.67,0-7.74,6.45-11.61,12.5-11.61s8.87,3.47,10.16,3.47c.4,0,.73-.16.97-.57h.48v8.95h-.56c-1.69-2.42-5.32-6.37-10.57-6.37-4.68,0-7.18,3.07-7.18,6.29,0,10.16,22.18,15.81,22.18,31.86,0,7.58-5,15.41-15,15.41-8.87,0-14.68-6.13-14.68-13.23Z"/><path class="uuid-0e54bec3-7073-4d90-8cf9-bbb16cb11b45" d="M353.45,41.81c-.73-.97-2.02-1.69-3.47-1.69h-13.15v27.83h17.66c1.53,0,2.82-.65,3.39-1.78h.4l-1.13,7.18h-28.07v-.32c1.13-.73,1.94-2.1,1.94-3.47V20.68c0-1.45-.81-2.74-1.94-3.47v-.32h25.81l1.13,7.18h-.48c-.56-1.21-1.85-1.78-3.39-1.78h-15.32v12.42h13.15c1.45,0,2.74-.73,3.47-1.69h.32v8.79h-.32Z"/><path class="uuid-0e54bec3-7073-4d90-8cf9-bbb16cb11b45" d="M372.88,83.59c0-1.05,8.23-1.45,8.23-14.92V21.65c0-1.85-.81-3.39-2.26-4.44v-.32h13.39v.32c-1.45,1.05-2.26,2.58-2.26,4.44v47.02c0,10.32-6.37,16.29-13.23,16.29-2.5,0-3.87-.89-3.87-1.37Z"/><path class="uuid-0e54bec3-7073-4d90-8cf9-bbb16cb11b45" d="M397.79,68.43l14.6-46.62c.56-1.77.48-3.47-1.61-4.6v-.32h22.34v.32c-2.02,1.21-2.18,2.74-1.61,4.6l14.6,46.62c.73,2.18,2.18,3.79,3.55,4.6v.32h-13.63v-.32c2.02-1.13,2.26-2.58,1.61-4.6l-3.23-10.16h-24.84l-3.23,10.24c-.56,1.78-.48,3.39,1.53,4.52v.32h-13.63v-.32c1.05-.65,2.82-2.18,3.55-4.6ZM431.99,50.36l-8.07-25.57h-3.95l-7.98,25.57h20Z"/><path class="uuid-0e54bec3-7073-4d90-8cf9-bbb16cb11b45" d="M448.92,45.28c0-17.58,12.74-30.25,29.52-30.25,9.76,0,14.84,4.27,17.83,4.27.89,0,1.53-.4,1.94-.97h.48v12.18h-.4c-4.11-4.28-11.45-7.58-18.96-7.58-12.18,0-21.62,8.55-21.62,22.18s9.11,22.18,22.42,22.18,19.92-8.23,21.54-8.23c.32,0,.48.32.48.97,0,4.44-7.58,15.16-23.39,15.16-16.78,0-29.84-12.26-29.84-29.92Z"/><path class="uuid-0e54bec3-7073-4d90-8cf9-bbb16cb11b45" d="M518.68,73.03v.32h-13.39v-.32c1.37-1.05,2.26-2.66,2.26-4.44V21.65c0-1.85-.89-3.39-2.26-4.44v-.32h13.39v.32c-1.45,1.05-2.34,2.58-2.34,4.44v21.29l21.46-21.29c1.85-1.85,2.26-3.31.81-4.44v-.32h16.13v.32c-1.13.4-3.79,2.58-4.84,3.63l-16.45,16.21,21.05,31.54c1.21,1.86,2.5,3.63,3.95,4.44v.32h-14.92v-.32c1.69-1.21,2.02-2.58.81-4.44l-16.94-25.57-11.05,10.81v14.76c0,1.78.89,3.39,2.34,4.44Z"/><path class="uuid-0e54bec3-7073-4d90-8cf9-bbb16cb11b45" d="M558.19,60.12c0-6.29,4.76-11.05,10.49-11.05,4.44,0,7.1,2.74,7.1,4.6,0,.4-.16.56-.4.56-.48,0-1.37-.56-3.23-.56-3.63,0-5.73,2.5-5.73,5.56,0,5,5.73,8.07,12.82,8.07,7.82,0,12.91-3.79,12.91-9.19,0-13.87-31.86-11.61-31.86-29.04,0-8.55,7.66-14.03,17.34-14.03,8.95,0,14.2,4.6,16.78,4.6.73,0,1.37-.4,1.78-.97h.4v12.1h-.32c-3.87-4.03-11.13-7.9-17.99-7.9-5.48,0-9.19,2.34-9.19,5.89,0,10.24,31.86,9.76,31.86,28.88,0,9.92-8.63,17.58-21.86,17.58-12.42,0-20.89-6.61-20.89-15.08Z"/><path class="uuid-0e54bec3-7073-4d90-8cf9-bbb16cb11b45" d="M603.5,45.2c0-17.18,13.15-30.17,30.81-30.17s30.89,12.99,30.89,30.17-13.15,30-30.89,30-30.81-12.91-30.81-30ZM634.32,67.3c12.91,0,22.1-9.11,22.1-22.1s-9.19-22.26-22.1-22.26-22.02,9.28-22.02,22.26,9.11,22.1,22.02,22.1Z"/><path class="uuid-0e54bec3-7073-4d90-8cf9-bbb16cb11b45" d="M669.71,73.03c1.37-1.05,2.26-2.66,2.26-4.44V21.65c0-1.85-.89-3.39-2.26-4.44v-.32h13.39v.32c-1.45,1.05-2.34,2.58-2.34,4.44v.08c0,11.45,24.6,22.1,28.79,31.29v-31.38c0-1.85-.89-3.39-2.34-4.44v-.32h13.39v.32c-1.37,1.05-2.26,2.58-2.26,4.44v46.94c0,1.78.89,3.39,2.26,4.44v.32h-13.39v-.32c1.45-1.05,2.34-2.66,2.34-4.44v-.08c0-11.94-24.84-22.74-28.79-31.78v31.86c0,1.78.89,3.39,2.34,4.44v.32h-13.39v-.32Z"/></svg>